<?xml version="1.0" encoding="UTF-8"?><svg fill="#B0D2EC" id="Layer_2" xmlns="http://www.w3.org/2000/svg" viewBox="0 0 465.71 536.46"><g id="SHPfSu.tif"><path d="M3.68,273.73c1.27-2.5.91-4.03,2.98-6.26,2.8-3.03,2.51-3.45,4.5-6.85,1.05-1.78,2.75-2.53,3.47-5.65,2.89-12.62-4.97-19.5-2.83-31.29,1.11-6.09,2.85-8.12,6.38-12.6,1.9-2.42-.36-3.11,3.74-3.35.27-.02.15-.62.63-.86,2.95-1.46,1.31-.81,3.1-2.8.81-.9,3.74-3.2,3.98-3.63,1.4-2.51,3-8.68,4.04-11.71.12-.35.86-.37.94-.74.83-3.64-.68-11.77-.54-15.88.09-2.61,1.84-6.47,1.58-9.36,4.96-6.78,12.61-10.6,15.74-18.8,6.75-5.84,3.84-14.95,4.18-22.78.18-4.17,2.15-19.13,4.28-22.18.68-.98,1.56-.75,2.05-1.2,1.38-1.27,3.4-4.55,4.47-5.25,1.24-.81,2.81-.44,3.49-.75.58-.26.64-1.14,1.06-1.33,1.07-.49,3.6-1.01,4.28-1.47s.32-1.76,1.17-1.97c.49-.12,2.84.3,3.89-.18.74-.34.67-1.27,1.15-1.38.88-.21,1.88.46,2.51.4,1.03-.1,1.85-1.03,3.4-.77.98.17,1.85.93,2.47.93.29,0,.03-1.03.99-1.08,2.58-.15,4.88,1.96,7.01,3.07,2.08.06-.08-2.39,1.51-2.03,1.98.46,3.32,1.98,4.49,3.5,1.05.02,1.1-.64.83-1.43,3.72-1.44,3.08,2.39,5.66,3.43l.49-1.49c1.38.79,1.17,3.83,3.16,2.75l-.17-.76c2.39-1.72,1.84.93,2.41,1.85,1.48,2.35,2.71,1,3.33,1.36,1.15.67,4.26,6.16,7.23,7.8.81.45,1.63-.03,2.39.43s2.73,2.86,3.37,3.26c.82.53,2.5.53,2.86.9.78.8.63,3.42,3.61,1.87-1.09,2.1,2.48,3.28,3.97,4.27.76.51,1.44,1.7,2.05,1.98.56.26,1.26-.26,1.4-.18.34.2.84,2.22,1.24,2.74.49.61,2.47,1.82,3.27,2.47.98.8.58,2.07,2.52,1.2,2.01,4.19,6.38,8.46,9.76,12.01.37.39,1.29.3,1.61.61.4.39,1.46,2.91,2.42,3.82.66.62,1.8.66,2.27,1.23.59.73.31,1.92.72,2.78.85,1.8,7.92,11.19,9.47,12.99.65.76,2.06.33,2.52.98.35.49.13,1.71.49,2.51.38.85,2.97,3.7,3.73,4.76,1.07,1.49.73,3.15,3.5,2.75-1.71,4.08.95,2.62,1.75,3.99.38.66.15,1.69.52,2.48.92,1.98,4.52,3.85,4.47,6.55l1.25-.05c-.64,2.7,1.25,3.43,2.22,5.03,1.1,1.81,1.68,3.91,3.77,4.96-.62-4.67-1.84-10.08-2.01-14.75-.08-2.15.84-4.66.88-6.58.29-18.24-7.88-36.63-17.24-51.91-6.12-10-14.03-18.57-21.79-27.14-6.81-7.52-18.72-16.08-7.52-26.45,2.82-2.61,6.94-3.17,10.4-4.17,1.88-.55,2.88-2.03,5.34-.81l-.5-1.49c1.39,0,2.32.5,2.74-1.01l2.25,1c1.05-3.05,2.6-6.74,4.07-9.67,2.19-4.37,4.94-10.31,9.93-12.04,2.8-.97,7.99-1.4,10.48-2.51,1.23-.55,1.39-1.62,1.85-1.75.78-.23,2.06.22,2.92-.46l.21.94h.74s.56-1,.56-1h1.39c.48,1.96,2.04-.16,3.49.13.87.17,1.42,1.89,2.57,1.91,1.3-1,3.75-2.72,4.48-.51,1.89-1.67,2.53.08,4.21.25,3.42.35,7.54.02,11.22.24,1.72.1,1.59,1.23,2.17,1.45.8.3,2.4.17,3.36.54l.26-1.51c1.43-.41.86,1.1,2.01,1.73.7.39,1.75.28,2.37.62.65.36,4.45,3.77,5.11,3.14-.09-1.54,1.21-2.62,2.26-3.53.38-.33,1.02-.02,1.13-.13,2.27-2.18,2.7-4.29,6.63-5.56,2.43-.79,4.4.76,5.72-2.27.54-.29-.32,1.93.99,1.49,1.09-.37,3.1-1.45,3.51-2.51l2.2,1.06.28,1.45c2.89-4.85,3.63.08,5.09.44.99.24,2.62-1.15,3.41.07l-.75,2.99,1.99-.5.02,1.98c1.31-.24,3.22.86,3.71,2.03.35.82.18,2.39.27,2.48.17.16,1.15-.15,1.6.03.51.2.83,1.74,2.88.98l-.99,2.49c2.05-.09,2.52-3.01,4.5-1.71v3.2c.45.6,2.62-1.98,2.8-1.99,2.9-.08,2.74,2.08,1.19,3.98,4.26-1.47,5.32,1.05,6.74,4.5,1.41-2.93,1.34.71,1.77,1.6.28.59,1.06.63,1.38,1.22,7.38,13.6,7.31,31.56,9.13,47.3,2.4,20.78,2.1,33.96-1.68,54.84-1.2,6.64-3.35,19.33-5.99,24.97-1.85,3.95-3.9,7.69-5.76,11.72-.47,1.02-1.69,1.45-1.6,2.64,1.21-1.15,3.7-2.25,4.81-3.18,3.09-2.6,6.34-6.69,9.57-9.29.89-.72,1.87-1.59,3.1-1.51l-.51-1.49c1.14-.09,2-.86,3.01-1.28.49-.2,1.23.27,1.41.16s.31-.98.87-1.34c.72-.46,2.14-.47,2.22-.55.06-.06-.7-.82-.07-1.75.77-1.14,4.75-2.7,5.79-3.74,4.14-4.15,6.27-8.34,11.29-12.17,3.29-2.51,8.31-6.23,11.74-7.75.82-.36,1.02-.91,1.48-1.56,2.95,1.67,2.29.32,3.7-.16,2.5-.85,3.92-.73,6.28-.85.72-.04,1.17-.85,1.88-.85.99,0,3.3,1.34,4.55,1.42.43-1.94,1.76-.33,2.32-.75.6-.45,1.25-3.29,2.47.22l.95-.05.31-.97c4.48-.4,5.77,6.81,9.7,4.02.05,3.71,4.87,2.82,5.47,6.28l2.52-.28-.99,2,2.96-.49,1.51,3.75,3.01-.26-.5,1.49,1.78.43c.66-2.19,3.39.03,3.23-1.92,1.89,2.1,2.19-1.01,4.35-1.42,1.39-.26,2.12.46,2.84.43.3,0,.24-.93.61-1.02,1.32-.32,4.79.07,6.14.28,1.23.19,1.78-.73,2.74.77.5.78-.18,1.96,1.53,1.47.25-.07.07-1.37.99-1.01.96.35.33,2.26.86,2.88.39.46,3.32,1.63,3.81,2.43.65,1.05.5,3.04.69,4.31.38,2.5.03,2.06.07,3.6.02.86,2.36,4.85,2.99,5.55,2.6,2.88,2.47,1.21,4.9,1.81.85.21,1.71,1.21,2.78,1.31,1.01.1,1.4-.71,2.16-.7,2.32.04,6,1.47,8.42,1.79l.03,1.97,1.99-1c-.65,1.9,1.11,2.19,1.35,2.64,3.23,6.02,4.35,10.52,4.66,17.56.65,14.58-7.69,25.73-8.04,39.45-.12,4.65,2.53,6.14,4.12,9.9,1.19,2.83,1.49,5.4.81,8.47-.43,1.95-8.12,9.71-10.07,11.63-1.13,1.11-5.98,4.54-6.21,5.54-.92,3.93,4.46,8.98,4.84,13.94.53,6.86-1.99,10.37-5.94,15.41-1.42,1.82-7.42,9.33-8.72,10.25-1.38.97-10.44,4.42-12.2,4.77-5.81,1.16-10.9-.66-16.11-2.92s-10.1-5.89-15.64-7.83c-.81.01-5.57,4.99-7.06,5.9-2.21,1.34-3.74.6-5.64,1.82-.03.39,3.15,5.31,3.48,5.5.81.46,1.98.04,2.42.32.3.19.6,2.55.96,3.29.66,1.33,2.06,2.01,2.81,3.18,2.17,3.37,2.83,10.16,5.94,12.78,1.31,1.11,4.98,1.1,5.25,1.28.79.52.77,2.52,3.57.88.14,2.64,4.46,3.66,6.26,4.98,3.54,2.6,7.3,13.52,7.71,17.8.15,1.55-.58,2.83-.5,4.41.4,8.5,4.71,19.51,3.39,27.86-.46,2.92-3.37,6.47-3.33,9.05.11,6.42,5.87,11.57,7.72,17.25.39,1.2,1.38,6.15,1.25,7.28-.24,2.11-2.5,5.16-4.41,6.09-5.39,2.63-21.5.84-27.6-.58-3.66-.85-7.27-2.88-11.15-3.24-.89.27-1.29,4.23-1.67,5.35-1.63,4.86-6.61,9.37-11.89,9.61-4.27.2-7.6-4.37-11.49-4.98-2.47-.39-9.49-.14-11.92.49-1.85.48-5.28,5.57-7.24,7.24-7.76,6.57-21.08,11.08-31.21,11.74-5.04.33-21.75-2.97-25.87-5.53-3.11-1.93-8.95-9.48-10.76-12.81-6.37-11.78-3.71-23.81-3.07-36.39.36-7.16-2.38-20.24-6.41-26.53-.4-.63-.81-1.44-1.59-1.65-.08,1.28.46,2.45.51,3.72.62,14.3-1.7,31.79-4.63,45.83-2.25,10.78-5.99,19.96-9.75,30.19-2.95,8.03-5.74,14.41-11.19,21.29-7.6,9.59-14.75,7.96-26.14,7.82-1.82-.02-3.35-.72-5.47-.52-1.13.11-7.62,1.58-8.52,1.96-1.32.55-4.22,5.64-5.69,7.29-.92,1.04-2.71,2.95-3.76,3.73-3.44,2.58-13.51,3.84-18,3.99-.96.03-2-.51-1.72,1h-3.99c-.34-1.19-1.36-.87-2.21-1.04-11.49-2.29-11.02-3.98-17.75-12.2-1.25-1.52-7.57-7.13-9.13-7.84-3.33-1.51-8.39-.59-12.04-.94-9.6-.92-18.66-5.09-27.5-8.44-8.89-3.37-18.9-4.82-22.09-15.35-1.12-3.72-1.11-10.07-2.42-13.05-2.41-5.46-12.42-9.97-16.67-14.76-8.53-9.62-7.06-21.95.9-31.06-.63-5.53-.58-9.23,6.29-8.11,2.36.38,3.26,3.28,6.71,1.42l.05-1.94c.89-.31,1.23.82,1.73.82.14,0,2.46-.9,2.6-.99.54-.34,2.58-3.14,2.78-3.22.78-.28,1.84,1.19,1.9-1.6,1.57.75,3.54-.94,5.01-1.72.44-.23,1.14.12,1.46-.08.81-.5,2.05-2.73,3.75-3.21l.49,1.03c1.79.12,2.52-2.28,2.82-2.47.15-.09,1.73.47,3.01-.09.31-.14,3.75-2.07,3.91-2.22.44-.42.02-1.27.46-1.51.47-.25,1.22.24,1.56.01.79-.53-.35-1.69,2.46-.73-.27-2.36,1.47-1.65,2.76-2.49,3.86-2.51,7.59-6.22,11.11-9,1.38-1.09,3.9-1.39,4.05-1.55.21-.21-.08-1.51.5-2.24.46-.58,1.52-.57,2.01-.99.59-.51.76-1.28,1.28-1.72,1.2-1.01,2.83-1.13,4.01-3.02s-.16-1.15,2.28-3.69c3.34-3.47,7.03-7.28,10.3-10.78,1.09-1.16,2.44-.51,2.56-.58.56-.34,3.31-4.43,4.84-4.86l6.22-7.02c-5.14,2.45-9.57,6.1-14.79,8.41-13.95,6.18-24.87,5.37-39.13,8.29-3.98.82-9.17,1.92-13.09,2.89-11.03,2.72-23.01,8.8-33.69,10.74-13.62,2.48-17.13-3.86-21.84-14.87-1.84-4.3-5.02-11.74-5.15-16.22-.37-13.21,7.31-26.9-1.88-39.16-3.03-4.04-13.68-11.53-14.58-15.37-.28-1.19.33-2.78-.61-3.63v-1.5ZM270.21,34.14c-1.64-.26-6.96.87-7.22,2.67-.33,2.23,2.55,11.11,2.97,14.2.25,1.84-.87,5.37-.6,7.2.15,1.02,1.59,1.77,1.44,3.06-.04.31-1.02.06-1.08,1.01-.22,3.39.53,7.49-.89,11.06.27,8.06-2.75,16.8-3.48,24.47-.28,2.92-.23,2.63,1.63,4.5.38.38,2.68,1.83,3.02,2.19.48.51.51,2.01,1.52,2.48.3-1.36,1.5-2.42,1.72-3.76.86-5.27,1.5-12.54,2.01-17.96.67-7.04-.84-13.96-.51-20.94.29-6.22,3.3-13.04,2.49-19.46l-3.02-10.71ZM207.36,38.58l-3.49.22c-.06,1.28-1.8,2.2-1.98,2.66-1.44,3.83,1.48,7.52-.52,11.09h2c.16,1.35.03,1.27-1,1.75l.99,1.02,3-.77c-.73,1.31-1.2,1.64-.24,2.98s.4-.7,1.44-.5c4.27,1.05,1.98,1.15,1.78,2.79-.28,2.28,2.37,1.47,3.02,2.59.78,1.36-.08,3.29.06,3.54.09.15,1.02.27,1.38.87,2.74,4.56,3.24,12,3.56,16.92.1,1.53,1.76,4.17,1.05,6.45l1.94.81c-.43,1.58-.88,2.58.29,3.98.77.92,1.75-.05.71,2.51h1.49c-.53,3.48.81,7.17,1.55,10.69.96,4.51.18,10.89-.12,15.96-.12,2.15-1.3,5.35-.88,7.52.48,2.5,3.17,6.69,3.82,9.15.27,1.04.05,2.06.18,3.09l1.46.03c-1.19,3.1.48,7.07.54,10.23.12,7.23-5.61,13.47-6.03,21.43-.45,8.57,1,14.05,2.83,22.13.12.52-.07,1.26.66,1.12.21-3.6,1.96-6.71,3.25-9.98,1.09-2.77-.25-1.87,2.23-4.23.89-.84.62-2.35,2.5-1.26.2-2.04-1.5-2.51-.19-4.46.26-.38,1.03-.38,1.19-.9.48-1.58.16-4.12,1.51-5.87l-1.5-.25c-.35-1.37.76-2.67.83-3.8.34-4.92-1.56-9.82-2.36-14.38-1.25-7.09-3.94-17.98-4.36-24.63-.16-2.53,2.42-9.74,2.28-11.27-.1-1.03-1.41-3.98-1.6-5.28-.14-.91.38-1.83.23-2.77-.93-6.02-4.97-8.65-6.14-14.37-.77-3.8.63-9.22.53-13.12-.1-3.54-7.05-12.2-9.08-15.78s-7.37-12.69-8.55-15.92c-1.31-3.59-.74-8.27-.25-11.99ZM228.34,40.58c-3.9,1.34-13.46-4.94-14.47,1.28-.46,2.83,1.39,6.13.04,8.86.61,1.13,1.84,1.38,2.67,2.36,1.04,1.23,2.36,5.3,2.91,5.83.34.32,1.24.24,1.88.86.43.41,6.33,9.05,6.47,9.62.25,1.01-.43,2.41.44,3.45.65.77,1.98.62,2.05.7.17.17-.56,1.38-.41,2.12.18.9,2.98,5.46,3.9,6.21l-.49,7.64.99-.51v1.51s-1-.25-1-.25c.84,1.88.24,3.88.72,5.79.23.91,1.7,1.36,2.04,2.47.28.94-.24,1.75-.16,1.89.07.13,2.11,1.93,2.4,1.57.74-4.68,3.19-12.11,1.96-16.69-1.62-6.01-6.45-8.97-9.04-13.92-2.42-4.62-4.3-14.81-4.3-20.06,0-3.56,1.25-7.22,1.4-10.74ZM245.8,76.52c.16-2.88-.2-5.86,0-8.73.16-2.2,1.77-7,1.49-8.48-.2-1.04-3.65-6.21-4.34-8.15-1.56-4.39-.78-8.63-6.14-10.58-.44,2.07.66,4.25.48,6.18-.15,1.57-1.45,2.68-1.52,4.05-.09,1.76.27,7.9,1.57,8.51l-1.03,2.22h1.5c-.8,2.48-.32,3.68.53,5.98,2.43-.84,2.68.56,3.9,2.36l-1.45,2.4,2.49,3.54,1.97-.25.55.95ZM195.38,41.58c-3.94,1.54-2.5,5.6-.99,8.48l1-.26v-8.23ZM291.05,91.83c2.41-4.44.9-12.92,1.16-18.07.39-7.76,2.68-15.32,3.81-22.97-2.62-4.35-7.29-4.65-11.28-6.46-1.21-.55-1.72-1.69-2.99-1.75-.05.71.16,1.55-.02,2.22-1.18,4.33.28,10.23-.59,14.89-.84,4.54-2.46,8.43-1.29,13.49.46,2.01,2.13,1.91.37,5.05,1.39.15.94,2.51.72,3.82-.41,2.52-.98,4.61-1.56,6.84-1.37,5.27-1.02,10.07-2.24,15.23-.16.68-1.14.96-.88,1.86.18.18,4.03-1.73,4.58-2.02.51-.27.6-.97,1.26-1.35s1.88-.14,2.53-.74c.79-.73,2.38-4.77,3.2-6.04.72-1.12,2.67-2.97,3.23-4ZM255.29,45.07l-2.88,1.1-.53,4.6c3.05,2,1.87,2.32,1.42,5.28l1.49-1c-.15,1.61,1.28,3.83,1.34,5.3.09,2.34-2.84,13.26-1.83,14.17s1.38-1.85,1.44-2.3c.91-7.05,1.25-15.32.55-22.41-.16-1.62-.92-3.11-1-4.75ZM192.88,77.02c-1.07-4.18,1.73-9.95.9-13.62-.19-.85-4.59-6.76-5.39-7.59-.47-.49-.66-.94-1.48-.75-1.97,4.68-2.85,6.28-.19,10.92.73,1.27,2.84,2.81,3.08,3.94.23,1.06-.33,2.08-.13,2.64.17.48,1.35,1.1,1.74,1.71.59.93.59,2.42,1.48,2.75ZM188.9,103.98v-8.74c0-.57-2.57-9.61-2.99-10.99-2.16-7.11-5.96-13.79-7-21.21l-4.99,1,1.5,3.25c-.74.47-1.26-.06-1,1.24h1.5s-.5,1.99-.5,1.99h2s-.41,1.44-.41,1.44c2.61.62-.41.75-.09,2.05l2.5.76-.78,2.24,1.03.99.49-1c1.4.51-.21,3.71-.01,4.99.9,1.34,1.48-2.24,2.76-1,.52.51-.92,2.12-1,2.78-.17,1.34.52,4.49.31,6.36-.2,1.77-.96,3.76-1.3,5.55,3.34,2.23,4.66,6.03,7.99,8.28ZM203.87,63.05c-2.25-.05-.9,2.92-.96,4.76-.08,2.49-1.54,5.13.46,6.98-2.38,1.12-.86,1.03-.98,2.47-.5,6.08,2.58,9.31,4.63,14.85,3.31,9,6.02,15.33,3.7,24.96-.68,2.81-2.43,5.88-2.8,8.68-.22,1.66.3,3.93-.13,5.36-.38,1.25-2.3,1.21-2.43,2.6,1.04,3.11,2.44,6.03,3.29,9.21.98,3.66,1.48,7.61,2.26,11.22.2.93.78,1.64.91,2.58.65,4.59-.13,9.25.06,13.93.02.61-.38,1.86.49,1.74-.37-4.16,2.65-7.97,3.76-11.48,2.34-7.4.37-17.28-1.91-24.57-1.09-3.49-2.22-3.35-1.78-8.08.66-7.13,2.95-13.94,2.43-21.52-.45-6.47-3.9-12.15-5.43-18.04-1.38-5.31-.46-11.66-1.97-17-.79-2.78-2.84-5.77-3.59-8.65ZM305.04,88.83c2.16-2.49.42-2.85.22-5.11-.53-5.96-.52-11.92-1.6-17.87l-.68-.8c-1.37,1.22-.54,3.4-.8,5.18-1.05,7.08.24,14.5-.76,20.16-1.26,7.13-6.53,10.07-7.55,13.96-.38,1.43.08,2.97-.13,4.37-.94,6.35-4.71,12.18-5.48,18.52-.09.74.6,4.69,1.25,4.7l3.49-15.47c3.92-7.54,5.94-16.57,9.14-24.31.92-2.24,1.85-2.08,2.92-3.32ZM173.42,86.51c1.13-.87-.95-4.04-1.24-4.99-1.59-5.12-3.25-9.67-5.36-14.61-1.22-2.61-5.58,2.56-5.86,4.42-.38,2.51,1.51,5.26,3.96,5.73l-.28,1.49c3.99.43,2.54,2.63,3.8,4.22.7.88,2.93,1.49,3.34,1.9.25.25.6,2.65,1.64,1.85ZM250.58,130.73c2.14-3.47,6.04-11.15,6.11-15.02.14-7.42-5.72-10.68-4.88-19.46.17-1.78,1.26-3.71.99-5.45-.12-.79-2.85-6.3-3.24-6.29-.79,2.5.59,5.23.64,7.74.18,8.99-5.84,19.3-8.53,27.81s-1.51,10.73-.41,18.67c.16,1.17.35,8.68,1.3,8.67,1.46-2.07,1.61-5.74,2.61-7.87.4-.85,1.29-.92,1.67-1.47.81-1.18-.04-4.53,2.96-3.62.1-1.01-.2-2.18,0-3.15.08-.39.67-.4.76-.56ZM197.39,94c.15,3.59.75,7.13.52,10.75-.22,3.33-1.7,8.17-1.37,11.4.12,1.22,2.33,4.56,3.1,5.79.94,0,3.05-9.44,3.19-10.78.37-3.45-2.12-12.39-3.69-15.68-.37-.78-.65-1.68-1.75-1.49ZM82.48,96.08c-1.43-.91-5.49.88-5.42,2.91,1.77-.42,1.63,1.19,2.73,2.01,2.72,2.02,6.06,4.14,9.01,5.97l13.22,12.99c.02-1.07-.8-2.01-1.38-2.86-4.53-6.64-12.03-12.77-17.32-19.13-.43-.52-.65-1.77-.84-1.89ZM115.93,108.55c-2.84-.45-1.71-1.57-2.2-2.52-2.44-4.7-14.92-9.68-20.18-9.29,1.8,3.46,5.26,5.48,7.74,8.23,3.33,3.69,6.39,7.9,9.15,11.8,3.23,4.55,9.93,13.82,11.81,18.67,1.35,3.49,1.12,8.77,2.51,12.48,2.07,2.66,6.32,4.83,8.23,7.24,8.56,10.85,16.08,22.88,23.45,34.46,3.91,6.15,6.93,7.71,11.42,12.53,10.33,11.09,12.07,17.1,26.38,25.03,1.65.92,3.74,3.54,5.83,3.13.37-.07.29-.81.56-.9.46-.15,1.41.28,2.28-.36l-.02-2.24h2.49c.09-.08-.57-1.19-.8-1.45-2.04-2.36-9.84-6.99-12.92-9.55-2.62-2.18-4.73-4.47-6.9-6.83-.66-.72-2.62-1.18-3.12-2.16-.41-.81.27-2.24-1.03-3.92-.49-.64-1.34-.8-1.75-1.29-.36-.44.07-1.17,0-1.21-.75-.48-1.28.64-2.04-1.71-.49-1.51-.15-2.8-1.61-4.27l-.78-6.04c-2.92.65-3.63-3.86-4.97-5.75-3.66-5.16-11.31-12.17-15.97-16.97-7.36-7.59-18.27-16.08-23.7-24.75-1.11-1.78-.96-3.6-1.4-4.34-.11-.19-1.31-.66-1.88-1.36-1.24-1.52-1.33-3.08-2.5-4.5l1-.98c-.26-.67-2.03-.15-2.48-2.02-.35-1.45,1.61-.12,1.49-1.23-2.16.21-1.02-2.97-2.25-3.5-1.71,3.45-2.74-1.35-1.75-3l-1.5-.26.5-2.23-1.49.5c-.1-.85-.11-2.48-.49-3.17-.32-.59-2.22.24-2.07-3.09.03-.68,1.97-1.33.98-3.15ZM83.88,114.14c-2.35-1.9-4.83-2.97-6.79-4.44-2.55-1.91-4.67-4.35-7.26-6.21-1.26,0-2.69,8.28-2.76,9.7,2.59,3.78,5.44,6.91,10.25,7.3,6.5.53,6.64,1.29,12.05,4.38,2.82,1.61,5.75,3.11,8.65,4.57-.52-2.51-2.57-3.62-4-5.24-3.09-3.51-6.44-7.08-10.15-10.06ZM298.59,179.25c1.12-2.64,2.65-7.71,3.1-10.69.56-3.76,1.08-4.56,1.92-8.03,3.3-13.66,5.33-30.95,5.15-44.81-.04-2.86-.35-5.89-.55-8.74l-6.34,14.37c-.34,4.27-2.55,10.45-2.6,14.41-.02,1.75,1,4.07.91,5.44-.12,1.74-1.41,3.42-.97,6.49,1.18,8.24,1.28,12.52-.55,20.86-1.4,6.38-2.72,12.05-5.42,18.05,2.79-.38,1.84-2.01,2.53-3.42.56-1.13,2.72-3.68,2.83-3.94ZM278.41,154.06c.15-.28.94-.37,1.39-1.34,6.14-13.37-2.51-18.01-.31-29.28.38-1.95,4.74-11.84,4.25-12.46l-7.77,3.49c.08,1.75.11,4.71,2.28,5.01v.74c-.07.4-.83.08-.99.59-.8,2.64.32,7.86-.13,10.26-2.3,12.18-5.72,19.62-13.63,28.82-2.18,2.54-13.47,22.02-13.22,24.2.08.66.78,1.16.87,1.68.24,1.35.26,3.16.64,4.6,1.05,1.06,4.63-3.18,5.2-4.04,4.56-6.88,7.49-12.86,13.63-18.57,1.55-1.44,6.5-11.27,7.79-13.69ZM150.79,144.09c-.44-.38-1.34-.37-2.12-1.12-.83-.8-3.02-3.54-3.46-4.53-1.42-3.14-.02-5.35-.53-8.5-6.67-6.03-13.02-12.4-21.17-16.46-.61.72,4.53,7.86,5.18,9.04.72,1.31,1.01,3.07,1.72,4.28,6.36,10.89,14.48,19.74,24.3,27.62.29-.49.19-2.13.05-2.64-.7-2.49-2.06-6.04-3.96-7.68ZM247.81,168.39c1.15.02,2.2-2.17,2.68-3.05,4.54-8.23,10.38-14.06,13.53-22.92,1.99-5.62,4.94-16.89,4.21-22.62-.21-1.65-.85-4.69-2.98-3.54-.92,11.91-11.53,21.1-14.35,32.05-1.27,4.93-2.87,12.42-3.37,17.56-.09.91.23,1.64.28,2.52ZM101.82,142.14c-6.41-4.46-19.66-14.08-27.05-15.14-.55-.08-2.7-.49-2.69.44,2.6-.59,1.6.89,2.78,1.96,1.56,1.41,5.73,2.66,7.05,3.69.56.43.7,1.66,1.31,2.19.57.49,6.45,4.78,6.85,4.91,1.76.57.43-.34,2.51.93,5.27,3.21,11.25,7.36,15.94,11.54,5.1,4.54,9.39,12.1,14.21,17.24,6.24,6.65,12.36,10.98,18.15,18.79,6.43,8.68,9.63,19.53,19.08,25.85l16.44,10.76-3.13-4.36c-5.44-5.92-12.07-12.36-17.64-18.53-2.16-2.4-6.49-6.05-5.18-9.56l-1.41-.06c-.57-3.38-4.28-5.51-6.28-8.47-4.31-6.37-7.83-12.77-12.57-18.89-7.24-9.36-18.69-16.55-28.38-23.3ZM95.34,152.62c-4.17-3.09-8.6-5.64-13.25-7.98l-14.77-12.19c-1.01-.13-.66.03-.74.73-.23,1.85-.13,3.44-.54,5.45-.35,1.69-1.84,1.91.04,4.05,3.63,4.13,8,6.19,12.16,9.31,8.23,6.17,16.28,12.16,24.41,18.39,6.85,5.25,12.46,8.67,18.84,14.74,9.76,9.29,14.44,14.75,19.64,27.29,1.02,2.45,5.37,9.46,7.07,11.4,1.4,1.6,3.01,1.71,4.26,2.3,3.77,1.79,8.42,3.06,11.88,6.15,2.34.2,14.75,8.7,15.57,8.01.93-.78-.71-1.07-.98-1.24-1.17-.7-2.35-1.23-3.46-2.05-13.17-9.64-25.44-15.4-33.67-29.99-9.65-17.09-21.39-25.91-33.07-40.31-4.74-5.84-6.99-9.34-13.38-14.07ZM67.74,155.74c-1.9-1.3-3.68-3.44-5.41-4.81-.51-.4-1.91-1.56-2.42-1.47-2.01,1.32-2.55,4.04-3.8,5.71-1.99,2.67-6.19,5.34-8,7.97-.29.42-.7.49-.49,1.25l2.48,1c.93-3.08,3.1-1.25,3.77,1,1.77-.94,3.24-1.13,5.17-.6l.55-.9c1.54,3.9,8.56,1.86,10.02,5.97,2.7-1.93,2.49.87,4.4,1.26.86.18,2.12-.45,3.29-.25.4.07,6.95,2.73,7.43,2.99.2.11,1.03,2.52,3.15,2.88,1.32.22,1.4-1.47,1.99,1.17,2.99.92,5.46,3.55,8.19,4.68,1.18.49,2.42.13,3.67.83.95.53,1.15,1.86,1.92,2.12,1.52.52,2.91-1.41,3.72,1.86l10.63,5.46c.33-.35-1.32-2.46-1.67-2.82-5.86-6.02-14.16-9.4-20.8-14.41-2.1-1.59-4.6-4.91-6.68-6.53-6.59-5.13-14.3-9.69-21.12-14.35ZM168.61,159.73c-2.45-3.22-4.25-7.73-7.67-10.31-.47,2.75,2.68,4.55,3.36,6.87.53,1.8.44,5.33.8,6.77,1.53,6.08,10.54,13.76,14.03,19.84,2.67,4.66,3.37,10.51,6.36,14.61,2.48,3.41,5.98,6.08,8.65,9.32l15.72,11.48c-1.7-4.94-5.75-8.41-8.7-12.51-11.09-15.42-21.17-31.11-32.55-46.07ZM280.56,196.66c3.64-10.35,8.61-22.2,9.88-33.2.4-3.48.14-7.51.3-11.05-1.26.49-1.13,2.28-1.79,3.45-1.34,2.36-6.14,8.82-6.59,10.9-.22,1.02.79,3.03.89,4.38.5,6.27-2.91,16.18-5.39,22.06-4.88,11.59-13.43,19.75-19.27,30.66-1.04,1.94-1.5,4.7-2.86,6.62-.99,1.39-2.68,1.68-2.92,3.81.41.32,2.78-1.1,2.94-1.28.67-.72.63-1.58,1.27-2.24.94-.98,3.69-1.63,4.52-2.48.51-.52.51-1.62.87-1.88.5-.36,2.01-.16,3.09-1.16.99-.92.73-2.65,2.79-2.45l.25,1.5c1.54-1.76,3.06-4.54,5.74-4l-.45-1.92c1.46-.44,1.86-2.05,3.44-1.07l-.99-1.99,2.43-1.32c-1.54-2.68-1.23-5.81-.87-8.86.49-4.06,1.65-5.39,2.73-8.49ZM381.6,155.91c-3.25-.53-6.2-2.11-9.49-1l.49,2.47-1.25.53-.49-1c-.93.66-1.14,2.46-1.96,3.04-.91.64-2.04.26-2.78.72-.46.28-.56,1.21-1.02,1.49-.61.37-1.71.11-1.92.31-.18.17-.02,1.32-.31,1.92-.72,1.48-3.33.86-2.75,3.02l-1.49-.5c.63,2.78-1.08,1.62-1.55,2.29-.54.75-.46,3.16-.95,4.2l-1.49-1c.1,1.14-.28,1.97-1.5,2.01v.48c1.92.13,1.41,1.37.51,2.63-.67.93-2.8,3.09-4.01,2.88l.5,1.99c-2.41-.71-4.87,1.56-7.05,2.71-3.35,1.75-6.97,3.67-10.67,5.33-3.18,1.43-5.19,2.69-8.24,4.19-4.71,2.32-10.26,3.05-14.55,5.31-2.05,1.08-11.47,7.3-12.27,8.56l-1.63,4.35c2.1-.05,3.38-1.49,5.24.02l.52-1.06c1.78,1,4.67,1.33,5.23-.96h.73c2.01,3.79,3.04-.84,3.26-1,.71-.53,2.01.98,2.66.92.79-.07,1.62-1.28,2.08-1.26.34.01.78.82,1.4.75.53-.06,2.21-1.39,3.29-1.62.93-.2,2.54.41,3.72-.27.62-.36.17-1.33.34-1.49.24-.23,2.03.32,2.88.13,2.03-.43,3.64-2.66,3.89-2.68.45-.03,1.2.61,1.88.54.39-.04,5.35-3.69,6.34-4.26.44-.25,1.2.15,1.49-.03.17-.11,1.73-1.89,2.71-2.72,12.32-10.4,25.45-24.61,34.92-37.49,1.01-1.37,1.09-3.27,3.29-4.45ZM355.64,160.41c-1.89.42-4,2.41-5.5,3.73-4.65,4.1-8.17,9.34-13.04,13.42-1.76,1.47-3.9,2.56-5.43,4.3,2.79.11,4.65-2.13,6.53-3.2,2.58-1.47,9.02-4.37,10.37-6.6.53-.88.61-1.97,1.15-2.85,1.85-3.01,3.74-6.06,5.92-8.81ZM390.26,166.07c.78-.53,2.33-.51,2.32-1.92l-2.97-2.06c-.98-.26-2.82,2.81-3.5,3.57-.52.59-1.55.84-2.03,1.46-.64.81-.62,2.19-1.12,2.64-.77.7-2.27,1.01-3.62,2.61-12.47,14.77-25.1,31.89-43.32,40.06-3.8,1.71-8.07,3.07-12.04,4.36l-.29,1.02c2.05-.3,1.56,1.23,2.61,2.18,1.18,1.08,3.78,1.87,5.38,1.81-.69-2.31-3.48-.65-4.49-2.49,1.82.77,5.58-1.33,6.76.48.47.73-.24,2.08.72,2.01.74-3.37,5.15-2.93,7.27-3.72,5.42-2.02,8.9-6.41,13.81-9.14.71-.4,1.9.18,2.89-.38.48-.27,8.16-6.65,8.5-7.09,9.82-12.67,8.87-25.69,23.13-35.4ZM420.54,167.39c-7.81-.72-14.45,7.03-22.15,1.54-3.2,2.3-6.2,4.71-8.71,7.77-5.71,6.98-6.55,15.39-11.16,22.82-5.98,9.63-18.98,18.12-29.04,23.38-2,1.05-5.13,2.22-7.33,2.91l.75,1.48,2.25-.24-1.99,1.74c1.01.67,1.97-.35,2.51-.26.78.13,1.93,1.16,2.82,1.16,1.72,0,.23-.95,3.54,0,2.32.67,1.89-1.32,2.76-2.25,3-3.2,5.62-7.38,9.26-9.19l.14-1.87c2.14-1.09,5.16-.09,6.18-2.57h.74s1,1.5,1,1.5c-.08-2.96,2.24-3.88,4.71-2.45l.77-1.33c2.47.76,1.39-1.44,1.93-3.49.26-.97,1.08-3.7,1.57-4.36.43-.57,1.13-.24,1.36-.46.33-.32.3-1.61.9-2.37,1.12-1.43,4.3-5.44,6.1-4.67l.62.85.99.31.75-1.99c2.64,5.83,4.1,1.02,4.54.99,1.22-.1,3.01.76,3.46,1.99l.99.03c.54-2.28,2.36.6,4.21-.04-.4-2.77,2.22-2.8,2.9-3.6.39-.46,4.63-9.41,5.33-10.9,1.83-3.87,3.01-8.48,5.17-12.32.75-1.32,2.73-1.63,2.11-4.12ZM45.12,168.89v15.48c2.35.45,4.41,2.57,6.72,3.52,4.21,1.74,8.61,2.04,12.76,2.73,2.28.38,3.01.83,5.12,1.4,1.8.48,3.99.67,5.85,1.34-2.2-2.28-3.6-5.22-5.56-7.66-1.61-2.01-4.23-3.71-5.44-5.04-1.07-1.18-2.22-4.82-3.7-5.79-.64-.42-6.67-2.64-7.63-2.86-3.27-.75-5.47.34-8.12-3.11ZM114.83,202.03c-7.21-5.29-16.75-8.21-24.46-12.74-2.19-1.29-4.48-3.62-6.97-5.01-.6-.34-5.13-2.61-5.33-2.4,1.58,4.57,5.05,11.03,9.31,13.41,1.64.92,3.57.99,5.28,1.71,7.31,3.08,6.63,6.76,9.79,12.68,2.56,4.81,6.76,7.32,10.91,10.56,8.51,6.64,20.17,16.16,30.89,18.03,1.53.27,3.23-.19,4.85.14,4.28.87,8.61,2.84,13.54,3.45.49.06,1.6.72,1.79-.32.14-.75-.8-1.3-1.33-1.66-4.66-3.21-11.24-4.06-16.25-6.21-14.92-6.43-19.44-22.39-32.02-31.62ZM264.7,201.78c.31-.34,2.12-7.61,2.54-8.72,1.13-3,4.74-6.86,3.79-10.69-2.41,1.66-2.7,4.51-4.15,6.83-3.5,5.62-9.65,12.07-14.82,16.13l-5.24,19.96,1.4.06.84,2.44c1.19-1.57.69-3.58,1.2-5.24.61-1.98,2.12-2.58,2.67-3.86,2.26-5.32,6.16-12.6,10.53-16.72.25-.24,1.09-.03,1.24-.19ZM449.38,217.71c.18-.19,1.72-4.28,1.88-4.86,1.18-4.5.44-10.03-.41-14.6-.24-1.26-1.04-5.02-1.62-5.87-1.42-2.07-11.35-2.09-14.56-3.41-2.58-1.07-5.62-4.35-7.92-6.07-1.5-.34-3.46,5.36-4.03,6.41-2.43,4.5-5.14,10.66-9.22,13.75-6.8,5.15-13.87,3.43-21.12.33-1.16.28-5.06,7.78-5.3,9.2-.05.29-.13.82.25.75.84-1.04,3.27-2.39,4.55-2.5,1.91-.16,2.61,1.93,4.44-.48l.76,1.49c.82.21.23-.86.79-1.01,2.1-.57,1.14,1.22,2.69,1.01l-.5-1.99c2.56.62,4.85.76,7.49,1l-1,1.99,2.99.5-.25-1.49,3.52,2.97c1.27.32.47-2.32,1.96-1.97.97.23,1.2,1.65.76,2.49h2.99s-.5-1.49-.5-1.49c2.99-.64,4.16,2.85,7.09,1.45.54-.26.59-1.56,2.39-.95-2.23,3,.93,1.57,2.3,1.53,3.16-.1,1.5-.26,2.52-.54,1.8-.49,5.98,1.07,5.16,3.5l1.7-.55.3,1.05.5-1.49c1.6,2.36,1.39.9,3.14,1.09.53.06,1.08.72,1.6.73.25,0,4.46-1.75,4.63-1.93ZM238.78,220.77l5.53-22.68c-.39-4.8-1.88-9.29-3.74-13.72-3.57,7.03-7.76,16.17-7.23,24.2.12,1.86,1.14,8.17,1.71,9.77.5,1.41,2.2,1.23,1.78,2.97.6-.92,1.9-.44,1.95-.54ZM101.2,222.64c-.98-.9-3.6-4.27-4.27-5.46-1.39-2.47-2.55-7.46-3.87-9.61-2.55-4.15-9.74-4.08-13.91-5.06-8.35-1.96-23.42-4.91-30.71-8.23-1.05-.48-3.42-2.35-3.64-2.38-1.69-.31-3.17,5.98-4.18,7.23l.5.94,9.98,4.58c2.21-.82,3.6.57,4.77.69.91.09,1.9-.66,2.88-.51.18.03,1.02,1.63,1.84,1.52l.75-1.5c1.13,2.18,4.46,2.11,6.71,3.28,5.14,2.66,5.51,5.06,8.53,8.83,6.42,8.01,17.06,18.91,27.49,20.6.92.15,2.08-.42,3.06-.15,4.14,1.13,10.71,6.6,15.01,8.49,3.34,1.47,7.71,1.19,10.09,4.25,13.99-4.48,27.3,6.97,41.19,3.62.06-.79-1.25-.82-1.81-.93-4.41-.89-8.98-.4-13.67-1.31-5.2-1.01-11.9-2.61-17.1-3.87-11.38-2.76-20.65-10.52-29.65-17.53-2.94-2.29-7.33-5.03-9.99-7.49ZM68.22,222.67c-.61-.77-.51-2.06-1.14-3.11-4.33-7.22-13.71-6.71-20.56-8.9-2.92-.93-6.62-3.14-9.24-4.77l-6.54,5.67c.21.46.24,1,.75,1.27,1.57.81,5.56,1.44,7.62,2.24,4.59,1.79,11.36,4.83,14.5,8.61,2.45,2.95,3.92,7.96,7.51,9.82,1.7.88,4.09.88,5.56,1.43,8.37,3.15,18.75,8.78,26.77,11.17.84.25,4.13,1.46,3.58-.33-5.13-.86-10.8-5.03-14.94-8.28-5.19-4.08-9.9-9.79-13.88-14.82ZM36.76,232.16c.97.56,4.62.54,6,.75.91.14,7.74,2.26,7.14-.13-2.57-4.68-7.89-6.99-12.76-8.72-3.16-1.12-6.95-1.61-10-2.48-1.41-.41-2.38-1.98-3.97-1.76l-1.44,10.42,7.73.52c2.02-.27,4.51-1.09,6.4.1.5.32.64,1.16.91,1.31ZM444.47,231.83c-5.2-.26-8.02-4.14-12.84-5.38-8.11-2.09-16.81-1.46-24.56-3.89-1.57-.49-3.12-1.96-4.77-2.22-3.94-.62-11.65-.15-15.97-.05s-8.94-.12-13.21,1.77c-3.09,1.37-8.73,6.59-10.51,9.46-.35.56-.48.82-.49,1.51-.03,1.21.2.52.79.76,4.32,1.76,3.45-.84,4.98-1,.16-.02,1.06,1.75,2.68,1.44l.78-1.38c1.11.71,4.78,1.72,5.97,1.35.86-.26.14-1.92,3.55-1.44,1.09.15.77.86,1.5,1.54,1.67-1.58,3.9-.56,5.41-1.08.75-.26.82-1.31,1.35-1.68.2-.14,3.2-.36,4.11-.86s.92-1.34,1.37-1.62c1.18-.72,5.27-.53,5.49-2.75h.99s-.51.98-.51.98c1.64.86,2.5-.16,3.89-.41.75-.14,1.79.38,2.13.17.42-.25.48-1.38,1.32-1.68.13-.05,2.67-.11,2.81-.08.41.09.33.99.62,1.02,1.22.09,4.45-1.93,5.21-.02l-1,1,2.49-.99c-.62,1.7.1,3.01,2,2.99v-1.5c2.14.49,2.14.13,1.5,1.76-.22.58-.9.35.26,1.24l2.23-1,.75,2.49,1.24-.99-.49,1.49,2.27-.06c.59,2.81,2.76,2.98,4.06,4.21.9.85,1.61,2.74,2.64,3.64.83.73,2.17.4,2.42.78.21.31.16,1.41.55,2.19.93,1.85,2.19,1.5,2.45,1.8.35.4-.29,3.11,1.58,3.41l.29-1.03,1.21.53c-.54-5.62,1.27-10.88,1.47-16.44ZM289.24,222.81l-7.38.61c-5.8,5.49-12.62,10.18-18.59,15.6-.65.59-5,4.64-4.48,5.25.82.97,1.19-1.28,1.78-1.41.99-.22,2.17,1.14,2.77-1.55,2.15,1.15,1.91-.5,2.23-.53.41-.03.97.59,1.69.28,6.12-2.72,12.17-13.59,18.82-16.16l3.15-2.08ZM320.69,223.81c-10.17,1.02-22.04,1.97-30.64,8.06-4.85,3.43-9.21,10.42-14.93,13.5-4.98,2.68-10.82,3.29-16.1,4.87-.36.11-1.11-.13-.72.76.54,1.24,3.19,3.03,3.03,5.22,1.09-.44,3.39.13,4.1-.06.21-.06,3.43-1.43,3.84-1.63,3.11-1.49,7.27-6.9,10.53-8.95,1.14-.72,2.69-.92,3.89-1.62,3.96-2.29,7.11-6.52,10.71-9.01,2.96-2.05,6.57-4.69,9.8-5.92.79-.3,5.52-2.06,5.9-2.14,1.11-.24,1.7.43,2.32.42.23,0,2.95-1.91,3.78-2.19,1.06-.36,3.83.13,4.49-1.31ZM241.81,246.77c.52-6.27,3.26-18-5.28-19.93-2.04-.46-8.22-.13-9.74,1.18-2.85,2.45-5.94,5.64-10.21,5.79-1.5.05-3.12-.79-4.35-.43-1.77.51-6.54,5.32-8.02,6.75-.59.57-2.81.24-1.59,2.65.83-1.43,2.73-1.15,3.72-1.77,1.48-.94,1.8-4.45,5.02-2.72l.04-1.44,2.69-.59,1.01,1.03,2.24-2.79,2.26,1.32.8-.94.94-.07c1.89,4.58,2.16,0,2.76,0l2.76,2.99,1.48-1c.35,1.18-.32,2.7.79,3.45,1.65,1.12,3.89-.99,4.6,1.41.18.62-.08,1.75.19,2.04.22.24,1.9.19,2.19,1.6l1.14-.12.82-1.39c1.11.71.42,1.01.25,1.99,2.06-.63,1.77,1.33,3.5,1ZM185.9,232.29c2.81-.21,5,4.02,7.48.75-.82-.34-4.94-2.56-5.23-2.57-.36-.02-3.16,1.11-2.25,1.82ZM396.39,248.47c-2.43-.91-2.87-.53-5.18-1.58-5.35-2.43-7.67-3.34-13.83-3.64-9.48-.47-16.97-.38-26.32-3.13-7.63-2.25-12.03-5.83-20.63-6.33-17.45-1.01-23.64,5.78-36.52,14.89-1.49,1.05-3.16,1.82-4.66,2.83.02.42,2.63.28,3.27.28,14.9-.18,25.19-6.44,38.92-7.51,3.39-.26,8.75-.56,11.98-.41,9.19.43,18.35,5.7,28,7.32,6.85,1.15,13.26.55,19.92,1.08s13.95,4.19,20.97,3.99c.01-.78-1.41-2.07-1.99-2.51-3.13-2.34-10.03-3.83-13.92-5.28ZM435.52,259.25c-5.25-4.99-7.85-11.57-12.97-16.73-3.9-3.93-10.23-8.59-16.14-7.21-.35.08-.32.79-.74.93-4.04,1.36-8.01,2.88-11.59,5.29,2.44.72,4.96,1.49,7.46,2.03.89.19,1.8-.45,2.66-.21.47.13,3.71,2.18,4.08,2.23.6.09,1.53-.58,2.46-.26.69.23.67,1.24.89,1.4.33.23,1.23-.59,1.92-.24.56.28.68,1.24,1.17,1.64,3.28,2.66,8.25,7.08,11.66,9.18.31.19,6.23,1.68,7,1.83.71.13,1.41.16,2.13.11ZM82.56,251.76c-.12-.75-.94-.93-1.49-1.25-4.8-2.83-17.94-7.89-23.34-8.61s-11.69,1.02-16.72.24c-3.43-.53-7.27-2.4-10.86-3.11-2.35-.46-4.23-.33-6.49-.74.87,3.58,1.1,8.19,5.36,8.89,1.37.22,2.3-.3,3.29-.22,3.2.27,7.14.71,9.83,1.62,2.5.84,7.63,3.55,10.19,3.62,4.59.13,9.32-.86,13.57-1.79l16.66,1.35ZM232.83,253.75c-.66-1.31-2.28-1.3-3.52-2.21-3.48-2.57-3.9-7.08-8.94-8.03-1.82-.34-3.91-.36-5.63.4-3.62,1.61-4.05,7.04.6,6.38l.85,4c1.99.56,2.91-.96,4.89.48l.52-1-.76-1.5c3.37-1.03,2.95,1.48,4.51,2.23.76.36,1.7.23,2.49.5.87.3,2.19,1.84,3.35.63.38-.4.12-2.02,1.62-1.87ZM251.29,263.75c2.16-7.39-2.16-9.28-7.23-12.97-1.11.77-.55,1.05.24,1.75,2.22,2,4.61,1.28,4.25,5.24l2.75,5.98ZM332.51,252.45c-2.15-1.17-6.85,1.04-9.33,1.61-4.24.97-5,1.2-8.87,2.66-.88.33-2.14.37-3.1.55.07,2.49,1.91,1.33,3,1.69,8.09,2.67,7.66.84,15.2.77,5.67-.05,7.87,2.17,11.72,2.82,2.71.46,4.92-.28,8.64.83,13.15,3.95,27.64,6.25,40.92,10.5,9.11,2.92,17.01,3.52,26.69,2.54,2.85-.29,5.5-1,8.38-1.21,1.57-.12,7.87.63,8.2-.77l-.44-3.71c-1.61-.26-2.13.98-3.78.6-1.86-.43-3.92-1.79-5.44-2.34-4.19-1.53-7.78-1.94-11.95-3.79-5.06-2.25-8-2.32-13.39-3.57-.68-.16-1.23-1-1.82-1.14-.88-.21-1.76.72-2.72.64-1.34-.12-3.19-.83-5.48-1.06-7.51-.74-14.65-.13-22.42-1.4-3.31-.54-9.59-2-12.85-3.17-1.69-.61-3.14-1.93-5.01-2.47-3.67-1.06-5.96-.45-9.23-.52-1.42-.03-3.46-.61-5.02-.6l-.72,1.35c-1.19.44-.9-.68-1.15-.81ZM102.03,256.26c-1.94-.19-.81,1.46-1.44,2.26-1.8,2.28-2.98.22-3.71.32-1.68.24-2.9,1.24-5.6.82-3.85-.59-2.48-.81-6.5-.41-7.67.76-15.44-1.75-23.39-.93-2.84.29-6.13,1.49-9.04,1.48-5.49-.02-12.23-3.5-17.6-4.41-3.49-.59-6.51.11-9.88-.5l-1.26,4.05c.12.6,5.91,1.87,6.96,2.04,8.7,1.36,18.94,2.32,27.78,2.77,9.49.49,20.63,1.69,29.81-.63.74-.19,1.29-1,1.86-1.15.61-.16,1.23.93,2.26.82.24-.03.26-.82.37-.85,1.23-.39,3.35-.04,4.64-1.19.6,2.04,1.2.4,2.51.03.84-.23,3.43-.95,4.02-.97.24,0,.14.79.45.87.88.21,2.78-.94,3.75-.92-.14-1.48-2.84-.4-2.97-.49l-.77-2c-.63.01-.02,3.27-1.99,2.5l-.26-3.49ZM212.35,259.28l-2.98-1.02-3.5,9.98c3.22-.21,3.66-4.4,4.79-6.46.28-.52,2.09-1.01,1.69-2.49ZM242.7,268.64c1.05-1.82-1.08-11.39-4.87-9.64-3.08,1.42-3.91,8.54-4.87,11.62-.83,2.66-2.01,5.3-3.12,7.86l.98.75.26-1.51c2.74.99,1.96-.33,2.86-.65.55-.2,1.34.24,1.85-.09.75-.48,1.4-2.55,1.6-2.66.27-.15,1.5,1.2,2.58-1.58.23-.58-.12-1.26.38-2.16.66-1.18,2.2-1.69,2.34-1.94ZM226.33,259.76c-3.45-.97-4.95,1.22-6,4.21-1.54,4.36.22,3.65,2.02,7.26l1.39-.84,2.59-10.63ZM155.36,263.86c-.54-.19-9.38-.28-11.14-.38-2.73-.16-3.15.34-4.96.3-3.48-.08-7.59-1.34-10.9-1.97-5.2,3.34-11.18,5.4-17.21,6.82-3.95.92-12.85,1.51-16.1,2.87-1.1.46-1.9,2.49-2.74,3.25-2.33,2.1-6.08,3.8-8.49,5.99l-3.26,3.48c1.94.34,3.54-1.36,5.3-1.48,2.78-.18,7.66.5,10.95.51,2.35,0,8.1.36,9.88-.03.39-.08.31-.95.54-.94,1.57.05,3.96,1.72,5.4,1.36.21-.05,3.37-1.46,3.84-1.69,7.91-3.84,16.97-5.82,25.42-9.03,2.89-1.1,5.95-3.09,8.71-4.27s7.09-1.44,8.84-3.89c-1.39.35-2.23.57-3.62-.04-.37-.17-.41-.83-.46-.85ZM289.74,267.25c-.82-1.51,1.55-4.02.5-4.76-2.11.23-4.17-.68-6.24-.77-5.38-.25-9.85,2.03-15.23,2.04.67,1.6,2.75.77,4.13,1.11,1.21.3,2.3,1.02,3.74,1.25,4.14.65,8.87.39,13.1,1.14ZM378.42,288.9c-6.02-4.31-9.11-6.92-16.34-9.39-9.46-3.23-19.48-2.19-28.79-4.66-4.83-1.28-9.47-4.52-14.09-5.87-5.72-1.67-11.64-3.49-17.37-5.1-2.47-.69-5.52-1.13-8.1-1.13l5.26,2.97c1.05,3.58,3.01,1.9,5.33,2.15,7.07.75,10.49,2.14,16.2,6.02.93.63,3.16,3.31,4.01,3.85,3.85,2.42,13.19,5.99,17.59,7.25,7.58,2.18,17.74,4.01,24.48,7.37,2.74,1.37,5.44,2.24,8.4,3.18,4.36,1.38,7.11,1.94,11.03,4.46.37.24.46.94.65,1.05,1.23.72,3.35-.95,4.13,1.61l1.24-1.49c-.69,3.56,3.64,1.71,6,3l-.51,1.48c5.64.99,9.44,6.01,15.18,5.95.51,2.49.63,1.06,1.51,1.32.71.21,1.14.71,2.02.78.27.02,3.71-.08,3.9-.13,1.4-.34,1.17-2.13,1.41-2.35.62-.55,2.68.46,2.87.36.2-.1,2.56-2.82,2.57-3.42l1.98,1v-2.49s1.5,0,1.5,0c.06-3.46-2.8-1.87-4.74-1.95-10.14-.44-23.46-.3-32.65-5.34-5.19-2.84-10.17-7.24-14.71-10.49ZM81.06,273.24c-5,.85-10.1.61-15.15.41-11.93-.48-24.09-1.89-35.9-3.53-3.24-.45-7.41-2.22-10.62-3.19-2.54-.12-6,8.82-4.73,11.3h2.5s-.5,1.98-.5,1.98c1.51-.35,2.44,1.89,2.83,1.99,4.95,1.18,9.57.83,14.67.3,1.13-.12,3.02-1.08,3.23-1.08,1.29.02,6.18,1.41,8.24,1.6,2.28.22,5.27-.65,6.97.7l.76-1.49,2,1.02.51-1.05c3.12,2.21,4.7-1.02,7.51-1.02.8,0,.94,1.8,2.68,1l.03-1.46c2.16,1.03,2.78-.36,3.98-.69,3.43-.93,5.49-2.26,8.38-3.8.66-.35,1.84-.4,2.62-.51v-2.49ZM171.42,270.74c-.88-.04-1.75-.07-2.62.11-2.53.55-5.03,1.96-7.2,2.83-9.87,3.93-19.03,8.8-29.03,12.36-4.92,1.75-11.67,3.01-16.32,5.14-4.31,1.98-8.64,6.4-12.95,8.52-7.99,3.94-16.49,3.16-24.09,5.86-4.39,1.56-6.77,10.39-11.11,12.85,3.45,1.5,6.92,6.11,10.77,6.2,1.6.04,6.47-.59,6.17-2.73l1.44.13.34-.87,1.49.93,1.26-1.91,1.74.89c1.68-.87.93-1.88.75-3.38h1.99s.24,1.49.24,1.49l3.75-1.53-.02-1.71c1.17-.68,4.01-.4,4.75-1.22.16-.17-.2-1.08.21-1.29.85-.44,2.04-.05,3.04-.49.85-.37,2.09-2.4,3-3.02l3,.78c-.73-1.27-.04-3.06,1.5-2.99l.25,1.49c.36-1.46,1.81-1.33,2.27-1.83.83-.89,1.35-2.89,2.73-3.66l.49,1c.83-1.47,1.96-1.22,1.45-3,4.07-.07,5.27-4.15,7.6-5.42,2.78-1.52,6.07-2.82,8.86-4.62.69-.44.92-1.45,1.3-1.67.21-.13,3.35-.99,4.56-1.46,1.32-.51,4.89-.51,3.94-2.79,3.76.82,2.61-1.14,3.48-1.76.46-.33,1.41-.15,2-.53,3.94-2.58,8.55-5.83,13.03-8.91.65-.45,1.73-.43,2.14-.74.5-.38.29-1.32.82-1.78.82-.71,2.7-.22,3-1.26ZM192.78,274.33l-3.13-2.6c-1.3,1.89-3.22,3.24-3.26,5.75-.02,1.3,3.09.68,3.53,1.97l2.22,3.26c.63.05.75-3.7.76-4.21.01-.93.2-3.63-.12-4.17ZM210.61,275.73c-2.11.36-5.02-.26-7.24,0v1.48s4.69.55,4.69.55l1.05,1.95,2.24-1.48-.99.74,1.75,2.25c.77-.77-.63-2.91,1.24-2.49-.27,1.93,1.34,2.06,2.2,3.04,1.07,1.22,3.51,5.23,5,4.98,4.2-5.26.36-3.5-2.22-5.77-1.18-1.04-3.87-6.65-4.26-6.74-1.12.1-2.51,1.32-3.46,1.48ZM281.67,275.82c-.72-.33-1,.23-1.41.65l4.74,11.22c.79,9.58,9.61,15.75,14.04,23.4,2.39,4.12,4.24,8.86,6.96,13.01,5.24,8,18.39,20.61,20.54,28.89,1.06,4.07.42,8.29,1.62,12.36.21.73-.28.87,1.01.73,0-3.27,1.04-7.58.76-10.75-.11-1.29-1.37-3.59-1.64-5.09-.28-1.61-.04-5.12-.33-6.14-.38-1.36-2-1.88-.79-4.2l-.73-.68-1.76.41c.38-1.69-1.45-2.51-1.84-3.15-1.67-2.77-3.31-7.38-5.13-10.11-.5-.75-1.76-1.05-1.92-1.34-.29-.52.09-1.48-.18-1.8-.2-.23-1.25-.02-1.68-.56-.39-.49-.43-2.2-.87-3.13-2.18-4.6-6.11-7.16-7.74-9.98-.33-.56-.84-4.11-1.37-5.37-2.54-6-5.03-12.27-7.86-18.1-2.37-4.88-2.29-3.02-5.82-5.18-.57-.35-1.58-2.04-2.2-2.51-1.03-.77-2.86-.58-3.59-2.67l-.75,1.5c-1.27.11-1.95-1.35-2.07-1.41ZM330.35,292.03c-4.26-4.91-3.51-3.43-8.62-6.6-3.98-2.47-8.48-7.61-13.32-8.15-.31-.04-.63-.07-.94-.05l-.25,1c2.5.44,2.24,3.01,3.04,4.19,5.96,8.87,12.54,11.52,19.4,18.54s12.09,13.76,17.55,22.39c1.88,2.97,7.05,9.7,8.19,12.32.38.87-.38,3.48,1.23,4.74l-1,.48c1.26,1.11,2.13,3.89,2.05,5.52-.05.93-1.01.65-1.07,1.05-.12.9.67,2.88.16,4.05-.29.66-1.15.59-1.16.9-.02.56.57,1.51.56,2.46-.01,2.03-1.16,3.4.95,5,.17.43-.69.11-.85.35-.43.67.72,5.9,1.07,6.92s4.12,5.19,4.99,6.49c1.74,2.6,4,6.59,5.56,9.4.92,1.65,2.46,2.85,2.46,5.04,1.03-.67.56-1.17.53-1.98-.17-4.47-1.18-5.82-2.05-9.48-1.53-6.41-3.37-15.81-3.73-22.26-.28-4.98,2.74-10.52,1.29-15.74-7.71-12.09-16.67-23.12-25.74-34.17-3.34-4.07-6.85-8.43-10.31-12.41ZM392.26,289.03c11.75,6.98,21.59,6.11,34.54,6.66,2.05.09,6.32,1.2,7.97,1.03.62-.06.88-.32,1.24-.78.12-.61-4.48-10.22-5.29-11.18-2.09-2.5-12.13.18-15.44.45-8.3.69-16.11-.48-24.23-2.22l-12.95-5.27c.25,3.46,5.02,3.84,7.03,5.69.8.74.74,1.8,1.1,2.15.25.25.93.18,1.29.45,2.13,1.62.8.39,2.53.94,1.11.35,1.68,1.76,2.21,2.07ZM174.42,288.2l1.52.29c2.56-3.05-.75-6.14-.77-9.77-1.58.66-2.5,2.37-3.78,3.21-10.65,6.98-19.12,11.08-30.54,16.38-13.3,6.17-22.56,17.11-37.22,23.69-3.12,1.4-6.37,3.13-9.48,4.5-2.1.93-5.05,1.15-6.96,2.02-.67.31-.79.04-.63,1.11,2.8,1.71,5.28-.17,7.48,1.5l.3-1.04,1.71.55v-1.51c.59.18.93.51,1.62.4,2.16-.34,5.57-1.91,6.97-2.77.61-.37,1.64.12,2.69-.59.86-.59,2.86-4.01,3.76-4.99,2.58,1.04,1.58-.11,2.45-.78.24-.18,4.38-1.47,5.41-2.05s3.06-2.53,3.27-2.56c.5-.07,1.3.55,2.41.26.34-.09,5.98-2.46,6.37-2.66.73-.38.78-1.43,1.11-1.63.57-.35,5.65-1.77,6.86-2.37,5.01-2.5,7.17-3.23,12.27-5.21,7.01-2.72,13.23-5.14,18.95-10.01,1.66-1.41,4.5-3.79,4.24-6ZM236.82,291.71c2.66-.36,4.9-1.66,6.2-4.04,1.59-2.9-.18-4.99.79-7.95-3.66,4.13-6.84,7.7-12.97,6.49.75,1.09,2.21,2.14,3.48,1.49l1.01,2.8,1.5-.3v1.51ZM265.27,279.73c-.65-.44-1.89,1.03-2.11,1.63-.37.99-.31,4.83-.67,5.86-.51,1.47-2.03,3.07-2.56,5.37-1.17,5.08.61,11.34,3.64,15.56,1.85,2.58,4.98,4.63,7.02,7.46,4.54,6.28,8.32,15.34,12.95,22,1.25,1.8,6.01,6.04,6.45,7.03.12.28,1.22,4.9,1.25,5.29.12,1.71-.98,3.93-.46,5.87l-2.51,1.07c2.98,1.97,9.33,6.37,12.66,3.79,1.25-.97-1.04-4.29-1.94-5.07-.48-.41-1.46-.32-1.79-.8-.35-.5-.47-2.04-.94-2.97-.67-1.34-1.64-1.35-2.24-2.22s-1.57-4.55-1.91-4.87c-.26-.25-1.09.05-1.41-.4-.47-.66-.37-2.51-.85-3.56-1.46-3.22-4.37-5.67-6.03-8.45-.93-1.56-1.88-5.21-2.83-6.66-.54-.83-1.65-.97-1.7-1.06-.05-.09.49-.2-.31-1.65s-2.06-4.44-2.78-5.48c-.62-.89-1.66-.98-2.33-2.16-2.59-4.51-2.52-13.92-3.73-19.24-.38-1.69-1.53-4.16-1.82-6.17-.18-1.25-.36-2.45-.05-3.69l-1.49.5c.27-2.56-.46-4.72-1.51-6.98ZM63.59,290.71l-13.26,1.42c-3.16-1.57-6.58-.73-9.98-.91-1.07-.05-11.24-1.22-11.22-.27-.09.73.55,1.08,1.06,1.44,5.29,3.7,13.22,6.48,19.68,5.7.37-.05-.05-1.4,1.23-.9l-.23.99,1.47.5,1.01-2c2.54,1.36,3.98.45,3.23-2.49l3.49.99c.3-.35-.75-3.86,1.47-3.45l.24.92,1.76-.5.03-1.46ZM185.4,291.71c-.8-.93-5.03,4.77-5.5,5.25-11.6,11.83-19.41,12.38-34.27,18.13-6.65,2.57-13.34,6.04-20.13,8.82-7.59,3.1-14.39,6.82-21.48,10.99-.65.38-1.26-.09-.98,1.24,1.88-.91,4.59-.8,6.72-.72.42.02.91.71,1.42.63.64-.1,1.38-1.29,2.08-1.24.4.03.9.85,1.95.83,1.34-.03,2.63-1.42,3.47-1.39.65.02,3.77,1.38,4.58,1.88l.75-2.49,5.46.98c-.14-1.43.07-1.5,1.42-1.58l.13-1.36,4.47-.04-.28-2,2.78-.49v-1.76c2.94,1.01,2.09-2.33,4.32-2.67,1.29-.19.65,1.93,2.16,1.43l-.49-1.99,1.68.97c1.95-1.41,3.23-2.97,4.56-4.94l1.24.98c.24-.3-1.2-2.18.49-2.5l1.01,1.25.5-2.75c.73-.05,1.43.35,2.16.31,3.98-.2,2.33-3.76,5.09-4.8,1.5-.56-.06,2.42,1.48,1.98,1.49-.93,3.24-1.98,3.29-3.95,2.81.93,3.5-1.15,5.21-3.03h.73c.17.87.43,1.7,1.5,1.5-.32-1.46,1.14-1.81,1.75-2.99l.74,1.49c0-1.86,1.85-1.24,2.8-1.95s4.14-8.12,4.98-9.5c1.08-1.76,3.08-1.13,2.21-4.53ZM96.54,292.71c-3.42-.11-6.79-.77-10.25-.52-11.67.86-19.18,7.33-29.08,11.86-8.06,3.69-15.74,1.92-23.57-1.36v4.5c2.4-.93,3.03,1.01,3.22.99.5-.05,1.67-1.05,2.48-1.02.31.01.06.98,1.01,1.08,2.53.24,5.97-.37,8.99-.03,1.02.11,1.81.96,3.02,1.01s2.46-.73,3.41-.55c.35.07.29.92.67,1.01.24.06,4.5.36,4.79.36,1.87-.05,3.71-.97,5.52-.92l1.84-2.42-1.99-.75c.65-1.12,1.66.02,2.48-.48,1.26-.78,2.34-4.37,2.65-4.67.22-.2.96,0,1.21-.22.4-.36.21-1.7,1.16-2.16.47-.23,2.75-.25,2.92-.3.06-.02.05-.72.69-1.07,2.49-1.37,6.37-.96,9.21-1.73s5.63-1.12,8.71-1.82c.52-.12,1.15.9.93-.79ZM345.15,295.7c.3-2.49-2.6-3.01-4.49-2.99l2.51,3.27,1.98-.28ZM197.37,295.23l-3.48-.52c.06,1.21.34,2,.04,3.24-.55,2.29-2.37,3.23-3.03,5.24,2.51-2.26,6.48-4.04,6.47-7.96ZM257,312.96c-3.28-4.97-4.97-9.88-6.58-15.63-.19-.69-.12-1.42-.12-2.13l-3.49,2.01c1.49,1.37.91,2.87,1.25,3.97.58,1.9,2.35,4.94,2.63,6.36.6,2.99,1.18,10.42,2.67,12.83.36.58,1.21.7,1.33.88.11.17-.35.9-.15,1.4,2.02,5.23,8.56,8.22,12.51,11.98,3.11,2.96,12.69,14.06,12.06,18.15-.13.86-1.49,2.27-.84,3.83l5.03-.74c.24-.14.87-5.16.82-5.43-.18-1.01-2.23-2.8-1.36-4.81l-.92.44c-.09-2.61-3.2-2.47-3.83-3.44-.25-.39.19-1.09-.19-1.75-.5-.85-2.81-3.08-3.73-4.29-1.64-2.16-2.58-3.71-3.76-5.72-2.83-4.86-6.1-9.6-9.28-14.19-1.18,2.8-1.54-.59-2.05-1.45-.57-.95-1.57-1.65-1.98-2.26ZM375.58,304.22c-6.82-1.56-12.5-7.85-19.94-7.01.15,2.05.95,5.56,2.65,6.83,1.44,1.08,4.19.9,5.71,1.53.88.36,3.35,1.8,4.57,2.42,1.64.83,3.08,3.15,4.8,1.32l1.73,1.38c.12-1.48,1.47-1.93,2.78-2.04l1.22,1.04c.04-2.72-.88-3.67-3.46-3.53l-.05-1.94ZM285.29,307.65c-1.7-3.16-3.26-7.2-6.53-8.95.53,3.08.34,6.6,1.11,9.62,1.14,4.45,3.03,5.48,5.29,8.69,5.91,8.36,11.03,20.06,16.54,28.89,3.96,6.34,9.26,12.48,13.49,18.46,4.95,6.99,3.77,10.57,6.25,17.72.35,1.01,1.33,2.87,2.23,3.5-.48-2.45.57-3.71,1.51-5.73l-1.5,1.24c-.91-2.92,4.09-2.92,1-4.99l-2,2.5c-.35-1.7.65-2.31,1.49-3.49l-1.53-.29c.09-4.12-2.7-8.2-.97-12.2l-1.99-.26.99-.24-1.01-3.25,1.02-.49c-.84-1.25-1.99-3.68-2.34-5.11-.22-.9-.02-2.85-.24-3.08-.09-.1-1.6-.15-2.22-1.23-1.1-1.91-2.04-4.8-3.65-6.58-.71-.79-3.25-1.46-3.88-2.38s-.33-2.49-.79-3.21-4.29-2.02-5.41-3.87c-.54-.89.05-1.47-.07-1.66-1.7-2.83-6.23-7.26-7.59-10.1-.3-.63-.29-1.3-.27-1.98l-.99.51c.79-3.47-3.02-4.36-3-7.49l-1.99.5-1.26-5.01-1.7-.02ZM358.46,382.75c-2.47-3.47-6.11-6.67-7.91-10.81-1.35-3.11-2.95-14.9-2.94-18.57,0-2.86,1.27-5.81,1.04-8.98-.48-6.33-8.41-15.1-12.16-20.29-4.23-5.86-8.07-12.37-13.79-17.16-3.41-2.85-7.92-4.78-10.98-8.23,1.41,5.58,5.11,9.62,7.89,14.32,3.93,6.62,7.59,12.75,11.79,19.16,5.13,7.84,11.56,15.62,14.14,24.83,5.57,19.96,10.57,43.27,14.22,63.64.8,4.48,2.58,5.54,1.14,10.86-.38,1.39-3.38,6.58-3.23,7.19.28,1.12,2.84.67,3.99,1.01,1.08.32,6.14,3.92,6.7,3.77,1.22-1.8,2.01-2.74,1.97-5.04l1.78-.46-.5-4.49,2,.24c-.53-3.7-1.32-7.35-1.94-11.04-2.94-17.36-2.52-24.96-13.22-39.95ZM203.25,308.56c1.08-1.06,2.47-7.47-.19-8.34-2.49-.42-3.52,9.56-5.19,11.2,1.16-.38,2.26-1.46,3.34-2.17.63-.41,1.75-.41,2.04-.69ZM220.35,306.19c-1.43-1.31-2.55,3.3-3.08,4.15-1.87,3.04-4.75,5.31-6.83,8.17,1.66,2.18,3.86,3.98,5.17,6.64l1.75-5.26c-1.74-3.23-.23-3.22.23-5.15.17-.71-.3-1.63.08-2.96.25-.87,2.92-5.36,2.67-5.59ZM89.55,342.63c.23-1.11-.55-1.12-1.23-1.51-7.21-4.23-14.27-8.61-21.27-13.18-9.5-6.2-16.48-6.29-26.55-9.39-2.11-.65-3.83-3.42-6.81-2.32l-1.83,6.92c-.37,1.46,1.29.53,1.97.57,3.93.23,3.01-.97,3.64-1.07.8-.13,2.42.38,3.27.65,1.58.5,6.71,2.58,7.97,3.38,1.03.65,2.73,3.05,3.89,3.65.84.44,7.24.69,9.22,1.11,10.35,2.17,13.65,5.27,22.12,10.07,1.7.96,3.67,1.33,5.61,1.12ZM205.37,325.66c.61-.85-2.03-2.95-1.5,0-1.41-1.88-2.99.11-4.11,1.6-1.25,1.65-2.09,4.03-3.37,5.63-3.34,4.18-10.96,8.6-12.83,13.63-1.32,3.54.19,5.95.36,9.31.79,15-8.62,22.21-9.02,35.45-.25,8.23,5.16,13.42,5.03,21.96-.03,1.89-.76,5.78-1.42,7.61-1.2,3.3-5.26,7.2-5.97,10.5-.45,2.1-1.18,5.89-1.49,8-1.06,7.19.21,14.58-2.11,21.6,1.49.25,1.37-1.9,2.28-2.96.58-.68,1.54-.95,2.23-1.79,1.33-1.63,1.47-3.99,2.98-5.49l-1.5-.25c-.23-1.21.2-.86,1.01-1.24v-1.01s-1.02-.5-1.02-.5l.06-.71c2.52-.54-.56-1.4,0-3.25.26-.89,1.56-.19,1.96-1.04.24-1.18-1.58-2.46-1.26-3.79.22-.89,2.27-2.89,2.59-3.59.73-1.59,1.4-4.53,2.21-6.44s.29-1.18.67-2.91c.88-3.99,1.54-6.55,4.82-9.17,3-2.4,7.7-3.32,8.01-7.72l1.93-.06c.31-1.72-1.55-2.28-1.9-3.84s.08-3.47-.6-5.15l.99-.24c-1.1-.86-1.88-1.94-1.5-3.42.1-.37,1-.32,1.02-.61.07-1.22-1.56-3.64-1.54-4.44,0-.26.92-.21,1.02-.6.68-2.65-1.35-3.13-1.52-4.42-.14-1.05,1.03-.65,1.43-1.57,2.49-5.75-.22-13.47.58-19.41.31-2.33,1.65-3.04,1.55-6.48-.08-2.63-2.06-8.35-1.89-9.91.06-.54,4.68-7.81,5.45-9.46.82-1.77,1.14-3.84,1.89-5.6,1.18-2.73,3.26-5.25,3.51-8.47l.99.25ZM252.79,357.11c1.76-3.57,3.61-10.41,2.47-14.19-2.02-6.65-8.29-13.24-12.94-18.26.15,1.29,1.13,1.96,1.38,3.36.29,1.64-.11,3.32.14,4.85.43,2.57,1.91,5.62,2.54,8.21l1.93.06.11,3.13,4.37,12.84ZM226.83,325.66l-.99.25c-.05,11.14-.31,22.27,1.72,33.23l2.27,5.46c.28-1.8.44-3.79.81-5.55.63-2.95,1.01-4.07,1.27-7.06.04-.5.72-1.06.73-1.61.03-.96-1.46-3.26-2.22-3.99l1.31-2.42c-.13-1.43-1.74-1.65-1.9-2.18-.74-2.57,1-2.75,1.01-2.93.14-3.06-2.88-4.52-3.4-7.1-.36-1.78,1.25-3.9-.61-6.09ZM218.47,357.51c-.18-.31-1.49-6.67-1.48-7.03.02-.84.77-1.94.68-2.63-.06-.52-1.19-.91-1.36-2.46-.22-2.05.37-5.64.29-8.01s-.93-5.02-.56-7.88c.12-.93,1.83-2.06.06-3.34-.99,4.84-4.36,8.65-6.51,12.95-.95,1.9-1.6,4.54-2.53,6.46-.72,1.49-4.06,6.51-4.07,7.38s1.53,2.8,1.76,4.02c1.11,5.76-2.23,8.69-2.39,12.89-.1,2.7.74,5.85.53,8.98-.48,7.41-2.53,14.62-.88,22.31.98,4.56,3.5,8.93,1.23,13.99-1.32,2.92-1.13,1.87-1.98,5.51-1.97,8.37-.36,8,2.63,15.08,2.59,6.14,2.4,12.28-1.6,17.9-1.91,2.68-3.08,2.18-4.88,3.61-.22.17-2.39,2.9-2.44,3.09-.27.96.3,1.85.19,2.4-.35,1.76-1.29,3.44-1.28,5.45.04,5.75,3.18,11.8,1.02,17.74l2-.74c-.23,1.42-2.08.83-1.5,2.74.95-.61,1.33-1.22,2.47-.51-.13-3.12,2.25-1.41,2.47-1.55.13-.08.6-1.72,1.3-1.94l.25.99c1.61.41.39-1.36,1.99-.99l.76,1.49c.34-1.46,1.57-.78,2.52-1.47.61-.44,2.23-2.13,2.73-2.77,1.21-1.55,2.16-4.04,2.85-5.59.5-1.12,2.01-1.73,2.16-2.93.13-1.06-.61-2.08-.53-2.96.1-1.07,1.34-1.52,1.38-2,.03-.36-.79-1.23-.85-2.03-.18-2.48.47-5.39.32-7.4-.07-.95-.99-2.03-.87-3,.05-.37,1.12-.1,1.08-1.04-.05-1.11-.96-1.71-1-2.48-.06-1.04.84-2.53.46-3.92-.15-.56-1.3-.53-1.45-1.12-.33-1.35,1.35-4.63,1.4-5.45.05-.9-.88-1.99-.94-3.04-.07-1.34.8-2.74.46-4.45-.46-2.3-1.38-.2-.81-4.22.29-2.02,1.28-5.93,1.05-7.6-.31-2.23-3.85-3.73-2.72-6.91l.99-.24c-.41-.71-1.07-1.38-1.36-2.14-.75-1.99-1.54-6.21-1.67-8.32s.66-5.98.45-7.42c-.2-1.35-4.85-4.05.59-3.35l-.78-3.74c-.38-8.02,7.33-14.12,9.63-20.61,1.18-3.32-.24-3.52-.26-5.45-.01-.74.94-1.25.9-2.35-.08-2.37-1.32-2.93-1.88-3.9ZM45.61,337.63c2.1-1.92-5.27-6.22-6.87-6.86-12.79-5.08-5.65,5-4.49,11.23l4.63,3.02,1.67-1.76-.92-2.39,1.99-.75c.58-1.31-1.42-1.11-1.49-1.74-.17-1.63,3.15-1.8,4.25-1.65.38.05-.05,1.39,1.23.89ZM174.03,358.71c.17-.27,1.14-.27,1.3-.88.32-1.25-.2-6.15-.9-7.48l.98-8.21c-.76-.17-.36.66-.84,1-5.62,3.99-7.39,5.71-12.1,10.75-.91.97-2.67,1.3-2.93,3.08-.22,1.51,1.53,6.78,1.84,8.95.93,6.53,1.71,14.33,1.96,20.91.1,2.49-.72,5.63-.4,8.49.24,2.13,1.42,4.39,1.85,6.64,2.41,12.49-6.77,22.79-8.53,34.49-.89,5.93.48,11.81-.02,17.69-.71,8.27-3.61,21.83-8.08,28.75-1.29,1.99-3.95,3.7-4.61,6.39.25.98,5.22,5.68,5.66,5.68,1.45-.01,1.12-2.15,2-2.52,1.43-.29.98.3,1.25.67,1.07,1.48.47-2.14.49-2.37.28-2.7,3.42-3.52,4.21-4.78.23-.38-.15-1.77.29-2.61.25-.48,2.83-2.97,2.91-3.21.4-1.22-.08-3.25.2-4.81.35-1.92,2.66-4.21,2.76-5.18.09-.91-.79-1.94-.85-2.96-.09-1.61,1.25-3.45.96-5.19-3.03.28-.46-1.45-.2-2.98.13-.77-.36-1.58-.2-2.17.2-.75,1.31-1.04,1.41-2.11.25-2.48-1.05-4.54-1.5-6.73l2-.25-2-2.24,1.53-.28-.48-4.01.94-.53v-1.68s-1,.25-1,.25c.65-1.59.29-3.85.69-5.27.91-3.18,1.89-8.62,3.06-11.45.92-2.24,3.86-5.46,4.43-8.1.12-.56.79-4.86.79-5.13,0-.96-1.36-2.39-1-3.73-1.89,1.09-2.2-3.7-1.46-5l-1.8-.49c.57-2.01-1.92-2.28-2.13-4.36-.12-1.19,2.32-1.03,1.43-2.15-.11-.14-2.24.9-1.87-2.18.1-.87,1.13-1.48,1.28-2.18.19-.88-.55-2.22-.46-3.4.04-.57.48-.63.6-3,.03-.62,2.87-10.67,3.28-11.56.34-.74,1.22-.78,1.56-1.48.4-.82,1.99-4.34,2.09-4.94.29-1.74-1.1-4.94-.37-6.1ZM53.61,353.61c1.72.71,2.14-1.87,2.77-1.99.58-.11.99.88,1.7.74.38-.07,2.65-1.17,2.51-1.98-.25-1.1-14.04-7.68-14.97-6.75-.11,4-1.64,8.07-5.69,9.46l-.31,1.03c2.14-.68,1.14,2.01,2.75,2.01,1.25,0,1.2-1.75,2.24-2.01l-.25,1.99c.53-1.39,2.45-.26,2.73-.51.14-.13-.09-1.86,1.32-2.43.34-.14,1.1-.26,1.2.2.28,1.31-1.46.13-1,1.74,2.35-.45,3.53-.28,3.53-2.95l1.96-.04-.5,1.49ZM267.27,344.64l-1,.25c.77,2.93.21,5.99-.99,8.72,2.51-.16,4.45,1.35,6.49,2.5l.5-4.99c-2.43.5-1.94-2.55-2.66-3.84-.35-.63-2.41-1.47-2.34-2.64ZM151.45,345.13c-.94-.22-1.19.52-1.75.99-12.22,10.24-21.08,22.4-33.74,32.16-6.29,4.85-13.68,9.96-20.81,13.64-5.35,2.76-12,4.7-17.04,7.43-2.46,1.33-4.32,3.87-6.7,5.28-3.31,1.98-7.91,1.48-7.87,5.85-1.9-.71-2.6,1-2.76,1.02-.93.11-2.23-.69-3.67.29-1.16.79-3.67,6.53-3.89,8.09-.36,2.49-.97,8.55,2.22,9.03,1.43.21,2.8-2.49,3.62-3.2.87-.76,2.43-.92,3.07-1.92.57-.9.31-1.97.49-2.27.05-.09.66.64,1.73-.47,1.16-1.2,1.51-3.42,2.2-4.2,6.64-7.48,15.99-12.95,23-20.04,7.73-7.81,22.9-7.72,32.58-11.37,3.43-1.29,12.9-9.18,13.74-12.23s1.84-3.15,3.52-5.94c2.55-4.24,4.12-9.81,7.77-13.2l4.28-8.95ZM405.12,407.62c.14-.24,1.41-.42,1.43-.83-4.65-2.72-4.6-6.8-6.54-10.92-6.73-14.24-14.8-28.7-22.5-42.41l-5.89-7.33c.71,1.56-.89,2.1-.9,2.23-.17,1.12.13,4.03,1.23,4.68,2.52,1.48,1.06.64,2.28,1.93.34.36,1.43.21,1.94.83.58.71.29,2.03.5,2.25.25.25,1.85-.23,2.43.81s-1.7.42-.99,1.74c1.73-1.03,3.4,1.06,4.22,2.54,1.21,2.21,5.04,9.09,5.57,10.93.42,1.49-.64,3.19,1.69,4.76l-.99.24c-.59,1.1,2.52,4.9,3.19,6.04.53.9.55,2.17,1.06,2.94.53.8,1.58.91,1.69,1.08.18.27-.41,1.03-.31,1.59.08.47.77.83.75,1.51,0,.26-1.09,3.67-.9,3.82h2c-1.18,3.03.29,5.64,1.36,8.39.69,1.77.91,2.09,1.52,3.45,1.4,3.12,2.53,5.46,2.22,9.04l3.38,2.6-1.01-7.2c2.33-.47,1.42-4.47,1.56-4.7ZM237.74,455.87c.2-.46-.45-1.28-.32-2.04.76-4.33,3.49-4.87,4.19-9.35,2.51-15.97,6.32-31.95,6.22-48.2-.06-9.12-1.48-21.69-3.08-30.85-.99-5.66-2.98-11.2-4.18-16.81-1.23,1.48.3,3.47.14,5.14-.43,4.69-2.8,10.51-3.65,15.32-1.48,8.33,1.07,16.47,1.73,24.81.34,4.2.57,6.43,1.75,10.69,2.02,7.25,4.44,10.03,2.03,17.95-.99,3.24-3.46,7.16-4.2,10.28-.89,3.71-.17,7.61-.66,11.32s-3.02,7.86-3.77,11.21c-.49,2.19-.32,5.49-.66,7.83-.27,1.86-2.43,5.4.05,5.29.5-.36,2.66-10.22,3.35-11.87.27-.64,1.03-.61,1.07-.7ZM405.06,388.56c.33-2.53-1.04-5.33-1.03-7.74.02-7.31.31-10.42-3.02-17.41-2.61-5.48-7.1-6.33-12.17-8.79l-.54,1.52,16.76,32.42ZM268.62,359.96c.22-.24.3-.55.42-.84l-.53-1c-1.6,1.2-2.58-.48-3.49-.52-2.72-.12-2.61,7.65-2.23,9.5,1.84-1.58,2.96-4.18,4.26-5.99.46-.64,1.22-.75,1.57-1.15ZM283.75,361.61c-2.97.19-9.05-.19-9.41,3.87-.17,1.88,2.21,1.72,2.72,3.6.06.21.19,3.89.17,4.28-.26,4.62-1.59,10.87-2.44,15.36-.11.59-1.31.48-1.45,1.12-.09.41.47,1.14.33,1.84-.1.49-.81.95-.89,1.65-.18,1.44,1.32,3.26,1.5,4.72l6.83-14.37c1.66-7.23,1.02-14.97,2.65-22.06ZM338.16,363.1c-.98-.05-1.01-.24-1,.76.03,2.24.34,5.3-.02,7.44-.2,1.17-1.48,3.25-1.85,4.65-.45,1.73-.27,3.64-1.14,5.35,4.93,6,8.36,12.89,9.97,20.52.83,3.93.19,7.12.59,10.89.71,6.77,3.28,16.27,4.67,23.29.11.53.03,1.61.75,1.48.18-2.9,3.59-8.59,3.01-11.14-.08-.37-.89-.29-.99-.69-.67-2.66-.55-7.02-1.27-10.13-.87-3.76-5.44-14.94-5.55-17.25-.03-.6.91-1.12.7-2.35-.39-2.26-2.58-3.99-2.82-5.25-.29-1.57.97-1.98.86-3.24-.13-1.5-1.62-2.52-2.03-4.06-.33-1.24.13-2.02-.02-2.92-.78-4.66-2.88-9.28-3.83-14.16-.2-1.01.03-2.17-.04-3.2ZM153.45,365.1l-1.71.53-9.54,16.42c1.85,11.49.15,24.76-9.26,32.67-3.96,3.33-9.73,6.03-13.89,9.07-.91.66-2.46,3.28-3.53,4.2.35.31,4.5-2.6,5.16-3.08.95-.69,3.77-3.45,4.34-3.68.81-.32,1.64.41,2.61.19.56-.13,1.16-.91,1.88-1.17,5.27-1.89,10.66-3.43,14.2-8.26.75-1.02.57-2.04,1.06-2.93.35-.63,2.97-2.89,3.46-2.89.72,0,2.67,3.05,4.47-.67.63-1.32.47-3.19.81-4.59.11-.44.89-.21,1-1.09.16-1.19-.08-4.07-.23-5.43-.13-1.17-1.61-1.87.19-3.84-.48-.42-2.16,1.44-1.98-.23.26-2.48,1.73-2.44,1.94-3.09.46-1.46-1.3-5.08,1.04-6.43l-1.99-.49,1.92-.81c-.72-3.54-.54-7.63-1.2-11.16-.19-1.03-1.6-1.69-.73-3.25ZM298.53,367.32c-1.85-1.23-7.36-3.68-8.22-.36-.3,1.15.63,2.27.45,3.3-.06.35-.92.28-1.01.67-.51,2.02,1.03,3.07,1.05,4.9.01,1.03-.95,6.33-1.19,7.87-.6,3.85-4.12,9.01-5.57,12.4s-1.02,3.63-1.28,6.69c-.65,7.75-2.49,14.24-1.38,22.36,1.02,7.47,6.1,12.84,6.37,20.61.08,2.43-1.15,5.82-2.99,7.47.37.82,1.1.26,1.36.44.16.1.16.68.74.96.46.23,4.38,1.79,4.63,1.8,3.93.17,2-6.17,2.24-8.44l-1.49.5c-.18-1.31-.04-1.26.99-1.74-2.19-1.36-.91-3.22-1.16-4.41-.7-3.41-2.53-7-3.2-10.7-1.99-10.87-.11-14.49,2.95-24.24,1.62-5.18,1.21-7.96,4.42-13.05,4.49-7.12,6.43-7.43,6.99-16.97.1-1.75.37-10.48-1.28-10.77-1.48-.49-1.52,1.39-2.01,1.54h-.95c-.28-.08-.29-.68-.47-.8ZM377.43,371.77c-.34-.32-2.01-1.52-2.31-1.17-.64,2.24,1.52,3.55,1.88,5.35,2.03,10.03-.01,18.33,4.02,28.48,1.38,3.47,3.11,5.95,4.47,8.94.71,1.55,1.04,4.46,1.65,5.37.37.56,1.27.69,1.38.88s-.2,2.73.42,4.3c.41,1.06,1.63,2.19,1.65,2.83.02.94-1.33,2.06-.99,3.26.79.08,3.43.17,3.87.33.72.26.73,1.16,1.14,1.41s2.46.02,3.21.76l1.26-1.5c-.32,2.68,3.04,2.12,5,2.49-1.64-2.58-4.67-4.97-6.4-7.3-2.21-2.98-7.04-15.18-8.34-19.15s-1.09-9.98-2.5-14.46c-.81-2.57-2.66-4.61-3.57-6.91-1.75-4.41-2.13-10.41-5.82-13.9ZM269.27,372.59l-1.48.38-.31,1.17-2.17-.04c-1.21,2.71,1.48,4.92,1.97,7.48l1.99-8.98ZM229.83,378.58c.29-.28-.88-4.99-2.49-4.49-1.95,5.78-8.07,10.93-8.95,17.27-.49,3.56-.35,20.61.59,23.78.63,2.11,3.1,5.38,3.37,7.61.97,7.99-1.56,19.63-1.52,27.98,0,1.57,1.07,2.94,1.04,4.98-.02,1.8-.92,3.71-1.03,5.5-.27,4.39.53,8.93-.51,13.22,3.71-1.37,3.78-4.85,4.75-7.97.34-1.1,1.5-2.68,1.64-3.4.19-.97-.4-1.73-.3-2.3.11-.62,1.19-1.03,1.32-1.62.18-.82-1.09-1.86-.91-2.15.03-.04.67.07.99-.37.95-1.31-.29-2.77-1-3.9l1.76-.72.32-3.96,1.4-.07c.45-1.64-1.33-.29-1-1.99l1.5-.25c-2.06-1.83-.51-5.35.52-7.49l-1.01-.5,1.49-1.51-.75-1.23-1.74.74c1.06-.4.41-1.71.5-1.75.38-.17,1.45.9,2-.26.22-1.07-1.45-2.14-1.01-3.91.09-.37,1-.31,1.03-.63.06-.66-.55-1.37-.42-2.31.18-1.3,2.36-3.35,2.78-5.74.29-1.64.3-1.47.57-2.5.98-3.8.58-6.4-1.97-9.36.82-.69,2.84,1.4,2.5-.75-5.47-.78-3.88-5.41-2.96-9.17l-2.03-.83c.87-1.68-.18-3.15-.05-4.74.09-1.04.85-1.56.91-2.38.14-1.97-.47-4.8-.36-6.85l-.99.51c-.27-.37,1.57-3.48-.5-4l-.75,1.99-1.02-3,1.17-.58-.41-.91h1.51ZM315.41,390.36c-1.23-2.73-2.35-5.49-3.47-8.28l-1.23-5.5c.52,2.69-.98,5.49-1.36,7.8-.21,1.28.73,2.74-.27,4.81-.57,1.19-1.58,1.14-1.91,1.7-.69,1.17-.48,3.96-2.96,3.15.89,2.56-1.51,2.8-1.91,3.84-.44,1.13-.38,3.81-.73,5.26-1.61,6.66-5.16,14.8-4.8,21.55.51,9.39,5.08,18.04,6.81,27.13.45,2.33-.72,4.02.15,6.1l2.46.03v-2c1.91-.8,2.46,1.44,2.75,1.52,1.21.33,1.18-1.66,3.43-.48l.6-1.06,2.91,1.06,2.09-2.5c3.06,1.89,4.99-1.11,8.18-1.53l-2-3.48-.5,1.99c-3.05-3.04-1.18-6.78-.98-10.22.31-5.07-1.02-16.24-2.59-20.93-.2-.61-1.1-.58-1.4-1.2-1.61-3.31-.49-15.3-.04-19.36.07-.67,1.35-4.4,1.02-4.71l-2.02.28c-1.13-1.11-1.08-3.43-1.51-4.39-.2-.45-.69-.47-.74-.59ZM136.87,389.49l-.65-1.41c-1.73,1.59-4.39,3.98-6.38,5.09-2.91,1.62-6.43.71-7.6,4.38-.43,1.34-.18,2.75-.85,4.14-1.42,2.94-6.52,10.02-9.2,11.77s-3.43.81-5.3,1.17c-4.88.92-13.71,11.75-16.56,15.91-4.74,6.93-5.77,16.41-10.44,23.51-.72,1.09-3.08,3.15-3.25,3.78-.95,3.48,4.76,7.34,3.93,10.62,1.65-.47,4.24-1.75,4.88-3.37.23-.58-.07-1.47.22-2.01.18-.32,3.07-1.96,3.64-3.14.39-.81-.15-1.84.14-2.76.24-.76,1.09-.72,1.1-.99.07-2.51-.58-2.74.89-5.55,7.94-15.18,14.29-27.23,28.39-37.28,4.31-3.07,9.2-5.27,12.32-9.8.53-1.81,4.04-7.26,3.87-8.7-.05-.42-1.63-.02-1.03-1.28l1.49.5c.44-1.77.07-2.62-.52-4.23l.93-.34ZM339.66,441.48c-1.04-1.99.72-2.46.91-3.31.2-.91-1.29-3.01-1.3-4.02,0-.7.79-1.11.79-1.81,0-1.54-2.8-11.44-3.24-14.22-1.3-8.19-.88-18.22-4.04-25.42-.44-1-1.6-2.57-2.6-3.14.35,2.72-1.44,5.06-2.16,7.58-1.38,4.81-2.24,16.26-.58,20.87.5,1.37,1.54,2.66,1.99,4,2.57,7.7,1.73,15.99,1.75,23.96.85.87,3.97-3.47,5.49-2.99l-1,1.49c1.62-.46,2.85-1.71,2-3.49l1.99.5ZM114.51,398.05c-2,.3-4.87.15-6.73.5s-8.96,4.2-10.98,5.51c-3.24,2.11-6.39,5.11-9.58,7.37-1.64,1.16-4.77,2.2-5.92,3.57-1.06,1.25-.84,2.87-1.73,4.26-.73,1.15-2.1,1.63-2.85,2.39-1.16,1.19-1.3,4.3-4.14,1.85-.41,2.69-3.52,4.15-5.2,6.04-1.08,1.22-2.34,2.89-3.2,4.28-.74,1.19-.55,3.23-2.08,3.17.66,1.53,2.5,1.88,3.99,1.99l-1,1.99h3.5s-.48,1.46-.48,1.46c3.01.66,3.43,4.1,5.96,5.53.19-.95.46-1.98.9-2.85,2.48-4.89,4.07-9.55,6.31-14.66.41-.94.14-2.01.54-2.95,1.07-2.46,8.19-10.34,10.19-12.27,3.17-3.06,3.97-4.81,8.61-6.37,6.15-2.07,8.19-1.17,12.22-7.49.49-.77.37-2.43,1.67-3.33ZM153.79,419.92c.63-.84-.63-2.52-1.52-2.35-4.35,2.99-10.41,8.84-11.96,14.02-1.25,4.14-1.52,9.78-2.62,13.44-.72,2.38-2.83,5.25-3.56,7.83-1.34,4.73.57,11.89.75,16.87.15,4.05-.63,8.72-.27,12.89.18,1.43,3.28.15,3.37.31l-.49,2.49c1.53,1.34,3.67-4.64,4.26-5.47,1.32-1.84,4.16-2.9,3.72-5.51l-.99.51c-1.13-1.71,3.79-3.72.5-5.22l1-3.27,1.99.5c.26-3.97-3.44-.43-.67-5.45.2-.37.94-.46,1.05-.63.56-.87.26-7.36.9-9.36.26-.81,1.74-1.14,1.22-3.2-.08-.32-1.56-.22-1-2.51.14-.57,1.27.1,1.01-1.07-1.71-1.18-1.64,1.36-2.99,1.74l2.5-6.23-2.5.24v-1.99c.35-.39,3.86,1.7,2.12-1.01h-1.13s.51-2.49.51-2.49c.32-.57.65,2.26,1.49.24.43-1.05-.94-.75-1.49-.75-.22-.85.82-.23.91-.72.14-.85-.72-4.41-.41-4.76l1.99-.24-1.99-1.75c2.26.61,1.35-2.83,2.77-4.52.46-.56,1.19.08,1.22.03.53-.85-1.27-2.61.35-2.6ZM378.77,420.36c-.47-.73-.11-2.49-1.66-2.84.22,3.25,2.25,6.22,1.49,9.49l-1.49-1c.34,3.85,3.54,2.58,6.48,2.99-.88-1.91-1.74-4.18-2.72-6.01-.68-1.27-1.64-1.92-2.1-2.64ZM192.62,427.79c-.36-.53-1.96-2.83-2.72-2.28-1.14,3.83-1.96,7.76-3.16,11.57-.66,2.1-3.31,7.32-3.56,8.84-.79,4.8,1,7.84-2.05,13.01-3.49,5.91-6.62,6.92-8.68,14.79-1.15,4.39-.36,4.28-.08,8.01.49,6.6.24,12.83-1.94,19.16h2s-.51-.99-.51-.99h2s-.99,1.99-.99,1.99c2.88-1.15,4.72-1.9,6.77-4.47,1.02-1.28,1.55-3.42,2.18-4.3.46-.65,1.89-.9,2.28-1.72.37-.77.11-1.71.53-2.49.23-.43,1.21-.36,1.51-1.45.59-2.14,1.24-4.15,1.53-5.95.09-.58.87-2.43.67-2.58-.12-.1-.98.22-1.38-.12-.18-.16-.09-.79-.32-1.17-.14-.23-.78-.26-.81-.55-.07-.66.54-1.43.42-2.31-.13-1.03-1.66-2.37-1.45-3.57l1.04-.53-1.5-4.49,1.01.11v1.14s1.49,0,1.49,0l-.07-1.92-1.93-.58c.48-.79.56-1.95.99-2.66.28-.46.98-.3,1.01-.34.13-.19-1.47-1.56-1-2.49h1.5c.24-2.13-1.88-2.92-1.5-4.99,3.26.62,3.25-3.06,4.72-4.52.62-.62,1.81-.83,2.53-1.46,1.22-1.08,1.52-2.56,3.49-3.03l.69-3.76-.94-.46.99-1.75-1.49.5c.6-2.2-1.83-2.92-2.3-4.48-.43-1.45.17-5.31-.21-7.15-.08-.38-.65-.39-.76-.56ZM132.98,428.51c-2.91.5-5.43,2.07-7.58,4-1.13,1.01-5.39,6.11-5.77,7.35-3.04,9.89,3.34,18.16,2.87,27.83-.14,2.84-2.19,10.57-1.24,12.75,1.12,2.57,6.1-2.09,8.43-.47l.78-1.81-1.47.77c.14-1.14-.24-2.6,0-3.66.09-.39.94-.31.93-.54-.05-1.08-.33-3.38-1.44-3.52,1.99-2.09.45-4.63,1-7.25h-2.75c-1.01-1.03.57-1.06,1.27-1.7,2.67-2.44-1.61-4.44-.87-7.65.22-.95.96-1.48,1.08-2.08.4-2.05.16-6.81.76-8.3.46-1.15,1.41-1.18,1.52-1.59.24-.94-.16-2.34-.04-3.37l1.53-.27-1.04-3.23.56-1.02,1.48-.26c-.6-1.95-.63-4.03,0-5.97ZM276.63,437.63c-.19-.22-.99-.46-1.36-.64-.86,1.16,2.4,8.91,4.48,9.49-1.01-1.94-1.94-7.48-3.13-8.85ZM112.25,453.29c-.99-2.6.07-2.15.07-3.06,0-.53-1.59-3.23-.81-4.75-4.22,4.06-7.69,10.95-9.72,16.49-1.02,2.79-3.39,9.62-2.25,12.1s3.37.02,5,1.09v1.73c1.99-.23,1.63,2.15,3.66,1.54l.55-1.01,3.74,1.5c.64-.96.42-3.03.62-3.62.29-.87,1.47-1.48,1.67-2.34.14-.6-.89-1.21-.82-2.27.02-.24,1.5-.15,1.04-1.51l-1.01-.74c1.78-.1,1.6-1.53,1.49-3l-.99,1.99c-.72-2,1.57-5.23-.53-5.75,1.26-2.35.64-3.3-.27-5.68-.2-.53-1.32-2.32-1.47-2.72ZM164.29,501.28c.33-.31,1.13-3.15,1.14-3.7.02-1.16-1.04-1.79-.94-2.36.06-.36,1.16-1.18,1.49-2.03.64-1.62.72-4.42,1.21-6.28.38-1.46,2.06-2.37,0-4.49-.06,2.01-1.13,1.25-2,1.97-2.38,1.97-3,6.42-5.77,7.76-.57.28-1.24-.25-1.39-.16-.18.11-.24.88-.55,1.16-2.2,2.02-.63.85-1.27,2.2-.82,1.69-2.22,2.59-3.58,3.76l.36,1.75c2.87.11,4.15-1.48,5.72,1.52l1.74-.99-.5,1.49c2.21.11,2.09-.53,3.17-1.33.33-.25.99-.11,1.17-.28Z"/></g></svg>