<svg width="1440" height="34" viewBox="0 0 1440 34" fill="none" xmlns="http://www.w3.org/2000/svg">
<ellipse cx="-4.90681" cy="16.8219" rx="17.0932" ry="16.8219" fill="#E3DFCE"/>
<circle cx="29.0082" cy="16.8219" r="16.8219" fill="#E3DFCE"/>
<ellipse cx="62.9233" cy="16.8219" rx="17.0932" ry="16.8219" fill="#E3DFCE"/>
<circle cx="96.8385" cy="16.8219" r="16.8219" fill="#E3DFCE"/>
<ellipse cx="130.753" cy="16.8219" rx="17.0932" ry="16.8219" fill="#E3DFCE"/>
<ellipse cx="164.94" cy="16.8219" rx="17.0932" ry="16.8219" fill="#E3DFCE"/>
<circle cx="198.855" cy="16.8219" r="16.8219" fill="#E3DFCE"/>
<ellipse cx="232.77" cy="16.8219" rx="17.0932" ry="16.8219" fill="#E3DFCE"/>
<circle cx="266.685" cy="16.8219" r="16.8219" fill="#E3DFCE"/>
<ellipse cx="436.803" cy="16.8219" rx="17.0932" ry="16.8219" fill="#E3DFCE"/>
<ellipse cx="674.48" cy="16.8219" rx="17.0932" ry="16.8219" fill="#E3DFCE"/>
<ellipse cx="300.6" cy="16.8219" rx="17.0932" ry="16.8219" fill="#E3DFCE"/>
<circle cx="470.718" cy="16.8219" r="16.8219" fill="#E3DFCE"/>
<circle cx="708.395" cy="16.8219" r="16.8219" fill="#E3DFCE"/>
<ellipse cx="334.787" cy="16.8219" rx="17.0932" ry="16.8219" fill="#E3DFCE"/>
<ellipse cx="504.633" cy="16.8219" rx="17.0932" ry="16.8219" fill="#E3DFCE"/>
<ellipse cx="742.31" cy="16.8219" rx="17.0932" ry="16.8219" fill="#E3DFCE"/>
<circle cx="368.702" cy="16.8219" r="16.8219" fill="#E3DFCE"/>
<ellipse cx="606.65" cy="16.8219" rx="17.0932" ry="16.8219" fill="#E3DFCE"/>
<circle cx="538.548" cy="16.8219" r="16.8219" fill="#E3DFCE"/>
<ellipse cx="402.617" cy="16.8219" rx="17.0932" ry="16.8219" fill="#E3DFCE"/>
<circle cx="640.565" cy="16.8219" r="16.8219" fill="#E3DFCE"/>
<ellipse cx="572.463" cy="16.8219" rx="17.0932" ry="16.8219" fill="#E3DFCE"/>
<ellipse cx="711.093" cy="16.8219" rx="17.0932" ry="16.8219" fill="#E3DFCE"/>
<circle cx="745.008" cy="16.8219" r="16.8219" fill="#E3DFCE"/>
<ellipse cx="778.923" cy="16.8219" rx="17.0932" ry="16.8219" fill="#E3DFCE"/>
<circle cx="812.839" cy="16.8219" r="16.8219" fill="#E3DFCE"/>
<ellipse cx="846.753" cy="16.8219" rx="17.0932" ry="16.8219" fill="#E3DFCE"/>
<ellipse cx="880.94" cy="16.8219" rx="17.0932" ry="16.8219" fill="#E3DFCE"/>
<circle cx="914.855" cy="16.8219" r="16.8219" fill="#E3DFCE"/>
<ellipse cx="948.77" cy="16.8219" rx="17.0932" ry="16.8219" fill="#E3DFCE"/>
<circle cx="982.685" cy="16.8219" r="16.8219" fill="#E3DFCE"/>
<ellipse cx="1152.8" cy="16.8219" rx="17.0932" ry="16.8219" fill="#E3DFCE"/>
<ellipse cx="1390.48" cy="16.8219" rx="17.0932" ry="16.8219" fill="#E3DFCE"/>
<ellipse cx="1016.6" cy="16.8219" rx="17.0932" ry="16.8219" fill="#E3DFCE"/>
<circle cx="1186.72" cy="16.8219" r="16.8219" fill="#E3DFCE"/>
<circle cx="1424.39" cy="16.8219" r="16.8219" fill="#E3DFCE"/>
<ellipse cx="1050.79" cy="16.8219" rx="17.0932" ry="16.8219" fill="#E3DFCE"/>
<ellipse cx="1220.63" cy="16.8219" rx="17.0932" ry="16.8219" fill="#E3DFCE"/>
<circle cx="1084.7" cy="16.8219" r="16.8219" fill="#E3DFCE"/>
<ellipse cx="1322.65" cy="16.8219" rx="17.0932" ry="16.8219" fill="#E3DFCE"/>
<circle cx="1254.55" cy="16.8219" r="16.8219" fill="#E3DFCE"/>
<ellipse cx="1118.62" cy="16.8219" rx="17.0932" ry="16.8219" fill="#E3DFCE"/>
<circle cx="1356.56" cy="16.8219" r="16.8219" fill="#E3DFCE"/>
<ellipse cx="1288.46" cy="16.8219" rx="17.0932" ry="16.8219" fill="#E3DFCE"/>
</svg>
