<svg width="1440" height="34" viewBox="0 0 1440 34" fill="none" xmlns="http://www.w3.org/2000/svg">
<ellipse cx="17.0932" cy="17.1781" rx="17.0932" ry="16.8219" fill="#300F0C"/>
<circle cx="51.0083" cy="17.1781" r="16.8219" fill="#300F0C"/>
<ellipse cx="84.9233" cy="17.1781" rx="17.0932" ry="16.8219" fill="#300F0C"/>
<circle cx="118.838" cy="17.1781" r="16.8219" fill="#300F0C"/>
<ellipse cx="152.753" cy="17.1781" rx="17.0932" ry="16.8219" fill="#300F0C"/>
<ellipse cx="186.94" cy="17.1781" rx="17.0932" ry="16.8219" fill="#300F0C"/>
<circle cx="220.855" cy="17.1781" r="16.8219" fill="#300F0C"/>
<ellipse cx="254.77" cy="17.1781" rx="17.0932" ry="16.8219" fill="#300F0C"/>
<circle cx="288.685" cy="17.1781" r="16.8219" fill="#300F0C"/>
<ellipse cx="458.803" cy="17.1781" rx="17.0932" ry="16.8219" fill="#300F0C"/>
<ellipse cx="696.48" cy="17.1781" rx="17.0932" ry="16.8219" fill="#300F0C"/>
<ellipse cx="322.6" cy="17.1781" rx="17.0932" ry="16.8219" fill="#300F0C"/>
<circle cx="492.718" cy="17.1781" r="16.8219" fill="#300F0C"/>
<circle cx="730.395" cy="17.1781" r="16.8219" fill="#300F0C"/>
<ellipse cx="356.786" cy="17.1781" rx="17.0932" ry="16.8219" fill="#300F0C"/>
<ellipse cx="526.633" cy="17.1781" rx="17.0932" ry="16.8219" fill="#300F0C"/>
<ellipse cx="764.31" cy="17.1781" rx="17.0932" ry="16.8219" fill="#300F0C"/>
<circle cx="390.702" cy="17.1781" r="16.8219" fill="#300F0C"/>
<ellipse cx="628.65" cy="17.1781" rx="17.0932" ry="16.8219" fill="#300F0C"/>
<circle cx="560.548" cy="17.1781" r="16.8219" fill="#300F0C"/>
<ellipse cx="424.617" cy="17.1781" rx="17.0932" ry="16.8219" fill="#300F0C"/>
<circle cx="662.565" cy="17.1781" r="16.8219" fill="#300F0C"/>
<ellipse cx="594.463" cy="17.1781" rx="17.0932" ry="16.8219" fill="#300F0C"/>
<ellipse cx="764.093" cy="16.8219" rx="17.0932" ry="16.8219" fill="#300F0C"/>
<circle cx="798.008" cy="16.8219" r="16.8219" fill="#300F0C"/>
<ellipse cx="831.923" cy="16.8219" rx="17.0932" ry="16.8219" fill="#300F0C"/>
<circle cx="865.838" cy="16.8219" r="16.8219" fill="#300F0C"/>
<ellipse cx="899.753" cy="16.8219" rx="17.0932" ry="16.8219" fill="#300F0C"/>
<ellipse cx="933.94" cy="16.8219" rx="17.0932" ry="16.8219" fill="#300F0C"/>
<circle cx="967.855" cy="16.8219" r="16.8219" fill="#300F0C"/>
<ellipse cx="1001.77" cy="16.8219" rx="17.0932" ry="16.8219" fill="#300F0C"/>
<circle cx="1035.69" cy="16.8219" r="16.8219" fill="#300F0C"/>
<ellipse cx="1205.8" cy="16.8219" rx="17.0932" ry="16.8219" fill="#300F0C"/>
<ellipse cx="1443.48" cy="16.8219" rx="17.0932" ry="16.8219" fill="#300F0C"/>
<ellipse cx="1069.6" cy="16.8219" rx="17.0932" ry="16.8219" fill="#300F0C"/>
<circle cx="1239.72" cy="16.8219" r="16.8219" fill="#300F0C"/>
<ellipse cx="1103.79" cy="16.8219" rx="17.0932" ry="16.8219" fill="#300F0C"/>
<ellipse cx="1273.63" cy="16.8219" rx="17.0932" ry="16.8219" fill="#300F0C"/>
<circle cx="1137.7" cy="16.8219" r="16.8219" fill="#300F0C"/>
<ellipse cx="1375.65" cy="16.8219" rx="17.0932" ry="16.8219" fill="#300F0C"/>
<circle cx="1307.55" cy="16.8219" r="16.8219" fill="#300F0C"/>
<ellipse cx="1171.62" cy="16.8219" rx="17.0932" ry="16.8219" fill="#300F0C"/>
<circle cx="1409.56" cy="16.8219" r="16.8219" fill="#300F0C"/>
<ellipse cx="1341.46" cy="16.8219" rx="17.0932" ry="16.8219" fill="#300F0C"/>
</svg>
