<svg width="1440" height="62" viewBox="0 0 1440 62" fill="none" xmlns="http://www.w3.org/2000/svg">
<ellipse cx="31.5" cy="31" rx="31.5" ry="31" fill="#300F0C"/>
<circle cx="94" cy="31" r="31" fill="#300F0C"/>
<ellipse cx="156.5" cy="31" rx="31.5" ry="31" fill="#300F0C"/>
<circle cx="219" cy="31" r="31" fill="#300F0C"/>
<ellipse cx="281.5" cy="31" rx="31.5" ry="31" fill="#300F0C"/>
<ellipse cx="344.5" cy="31" rx="31.5" ry="31" fill="#300F0C"/>
<circle cx="407" cy="31" r="31" fill="#300F0C"/>
<ellipse cx="469.5" cy="31" rx="31.5" ry="31" fill="#300F0C"/>
<circle cx="532" cy="31" r="31" fill="#300F0C"/>
<ellipse cx="845.5" cy="31" rx="31.5" ry="31" fill="#300F0C"/>
<ellipse cx="1283.5" cy="31" rx="31.5" ry="31" fill="#300F0C"/>
<ellipse cx="594.5" cy="31" rx="31.5" ry="31" fill="#300F0C"/>
<circle cx="908" cy="31" r="31" fill="#300F0C"/>
<circle cx="1346" cy="31" r="31" fill="#300F0C"/>
<ellipse cx="657.5" cy="31" rx="31.5" ry="31" fill="#300F0C"/>
<ellipse cx="970.5" cy="31" rx="31.5" ry="31" fill="#300F0C"/>
<ellipse cx="1408.5" cy="31" rx="31.5" ry="31" fill="#300F0C"/>
<circle cx="720" cy="31" r="31" fill="#300F0C"/>
<ellipse cx="1158.5" cy="31" rx="31.5" ry="31" fill="#300F0C"/>
<circle cx="1033" cy="31" r="31" fill="#300F0C"/>
<ellipse cx="782.5" cy="31" rx="31.5" ry="31" fill="#300F0C"/>
<circle cx="1221" cy="31" r="31" fill="#300F0C"/>
<ellipse cx="1095.5" cy="31" rx="31.5" ry="31" fill="#300F0C"/>
</svg>
