<?xml version="1.0" encoding="UTF-8"?><svg id="Layer_1" xmlns="http://www.w3.org/2000/svg" viewBox="0 0 492.75 460.08"><defs><style>.cls-1{fill:#e8e1d0;}</style></defs><path class="cls-1" d="M226.59,20.54c3.88,3.06,6.37,6.3,6.01,11.19,6.62-.79,10.04-4.69,15.6,1.14,4.35-9.48,11.22-17.41,23.68-19.36,46.57-7.29,111.6,31.89,135.52,64.68,43.72,59.93,61.26,147.42,41.9,216.15-20,71.02-60.85,118.63-141.16,145.2-18.34,6.07-32.71,12.57-51.04,2.65-1.76-.95-3.64-3.59-4.85-4.02-2.96-1.04-2.31,4.04-4.71,5.28-4.61,2.38-14.48.44-14.97-5.28h-1.98c-14.01,13.81-30.75,9.3-48.15,4.04-39.16-11.84-86.5-38.07-109.71-68.11-34.05-44.08-51.77-105.25-46.38-157.9,7.62-74.43,39.53-162.31,126.2-193.26,20.87-7.45,55.41-17.08,74.04-2.41ZM212.54,44.83c.52-.77,5.16-1.13,5.17-4.32.03-8.01-21.58-3.68-12.87,7.56,11.02,14.22,38.18-8.84,19.46-25.01-18.42-15.91-69.36.96-89,10.77-65.33,32.64-92.3,101.29-101.99,162.62-13.45,85.15,15.35,176.04,103.04,223.46,13.8,7.46,55.88,24.02,71.13,24.19,12.82.15,27.5-10.57,27.93-21.75.62-16.03-27.52-17.12-25.89-.6,1.14,1.03,14.7-6.34,17.06,1.08,3.13,9.86-10.74,15.32-20.1,15.02-28.25-.91-83.97-32.3-103.5-50.05-69.26-62.96-75.17-138.31-58.64-220.49,10.19-50.65,53.67-120.3,112.91-137.96,20.39-6.08,70.83-15.32,61.87,16.8l-6.88,1.95c.09-1.07-.38-2.29.3-3.28ZM273.29,421.76c-1.43-22.59-37.41-10.54-21.48,10.94,11.61,15.67,30.57,11.32,47.55,6.29,90.36-26.8,134.73-85.52,151.32-164.55,12.36-58.91-12.18-160.64-57.28-207.6-24.1-25.09-77.88-53.67-116.69-50.34-19.85,1.71-33.9,20.89-16.3,32.78,15.99,10.8,27.63-10.52,13.24-12.7-9.33-1.42-9.87,6.5-2.36,9.18l-1.4,2.35c-13.7-2.03-6.47-19.22,3.42-22.84,22.11-8.09,64.01,5.85,82.65,17.67,63.59,40.32,86.77,117.88,91.02,182.63,5.77,88.03-51,180.94-152.01,208.43-11.92,3.24-37.78,8.01-38.63-8.62-.55-10.69,16.2-2.94,16.97-3.64ZM213.58,34.07c1.27-5.46-8.13-6.6-12.89-7.01C122.35,20.27,63.73,103.31,49.78,160.3c-20.05,81.96-12.4,164.79,57.94,226.94,18.33,16.2,74.79,48.2,100.93,46.99,5.3-.25,20.14-6.66,13.15-10.76-4.2-2.46-11.69,6.45-20.74,6.19-26.77-.75-74.82-33.19-91.92-50.68-61.02-62.42-69.39-124.25-56.85-203.63,7.59-47.99,52.12-117.67,105.69-137.17,18.61-6.77,25.42-4.64,44.14-4.07,4.05.12,7.44-2.43,11.46-.05ZM382.64,380.28c64.48-61.96,69.59-142.47,50.4-221.15-13.66-56.03-75.37-142.25-153.31-131.81-1.51.2-13.59,3.33-10.5,5.57,6.63,1.73,12.4-.01,18.26-.05,80.13-.46,137.51,89.65,144.55,150.58,9.18,79.4,2.28,133.86-58.99,196.2-17.72,18.03-63.33,48.83-91.12,50.28-7.34.38-21.44-11.76-21.95-4.28-.63,9.1,18.61,8.47,25.6,7.33,31.45-5.14,75.87-32.31,97.06-52.67ZM247.18,43.15c6.74-5.74-7.09-13.95-11.22-7.92-5.56,8.11,5.98,12.38,11.22,7.92ZM199.35,36.41h-21.71c-43.93,0-91.95,65.38-107.15,96.09-17.38,35.1-21.19,90.08-18.43,128.27,4.34,59.88,68.16,144.92,136.82,163.01,2.78.73,18.54,4.25,19.3.89-4.15-4.98-3.36-10.55,2-14.63,12.83-9.77,34.8,2.12,27.84,16.41,10.83.86,3.64-4.62,6.45-10.23,8.35-16.72,41.62-9.74,30.18,8.45.97,4.8,21.94-1.44,25.5-2.56,58.14-18.37,115.43-88.53,127.21-139.68,8.06-35.04,3.99-105.4-9.6-139.38-16.36-40.91-72.09-116.03-131.55-106.63-6.09.96.07,7.59-4.46,13.73-8.08,10.95-26.11,4.69-30.86-5.54-7.26,4.9-11.7,4.91-18.95-.01-7.24,17.33-38.52,13.24-31.08-5.76l-1.5-2.42ZM237.01,430.26c-6.41,4.83,3.57,15.21,9.17,9.69,5.94-5.86-2.74-14.53-9.17-9.69Z"/><path class="cls-1" d="M192.31,141.1c-5.39-.35-10.95.32-16.28.92-6.16.7-12.28,1.83-18.29,3.37-8.07,2.07-16.63,6.87-22.87,12.33-9.77,8.55-14.28,20.65-11.92,33.51,0,0,5.04,24.72,40.24,31.04,0,0,11.15,2.14,19.99-.78,0,0,.05.78-1.11,1.85,0,0-20.17,9.49-47.98-10.71,0,0-.91-.58-2.32-1.71-19.94-16.08-19.06-46.55,1.25-62.15,7.36-5.65,17.73-10.81,31.61-11.79,40.46-2.86,51.4,9.39,81.16,19.24,11.05,4.94,25.38,9.34,34.73,8.85,4.48-5.23,11.43-11.51,17.2-14.06,2.13-.92,5.27-2.48,7.1-2.33,4.25.53,4.58,4.73,2.89,8.09-3.97,9.27-15.92,10.3-21.16,10.83-5.97,2.75-8.92,13.77-11.34,21.15-3.13,10.26-7.63,23.65,1.11,30.84,25.76,21.2,64.83-64.58,41.16-89.89-4.63-4.95-11.05-8.89-18.82-7.98-21.6,2.53-36.77,21.31-39.67,24.19-6.7,6.03-16.5,19.2-20.91,26.72,0,0-16.05,23.6-21.05,48.98-3.25,16.51-5.6,29.26-6.54,44.97-1.07,20.79.34,32.27,1.59,41.84,5.78,30.11,34.18,38.13,54.67,23.9,5.54-3.73,9.17-8.01,13.72-13.64,7.31-9.03,15.42-19.93,21.07-33.55,4.28-10.49,7.96-20.9,11.11-27.96.7-1.2,1.98-4.21,3.71-3.25.49.37.79,1.18.92,1.81.72,3.53,1.41,7.41.23,10.8-4.69,10.44-7.41,28.97-29.93,53.98-12.31,13.67-23.61,21.94-39.23,23.17-20.57,1.92-31.78-10.02-40.11-24.99-15.31-27.5-10.1-70.63-10.1-70.63,1.77-13.98,6.51-27.06,10.93-38.84,14.78-39.38,39.31-68,64.89-83.08,50.8-29.03,68.26,17.56,47.4,59.87-6.87,13.29-17.8,31.14-29.13,36.82-15.24,6.53-24.94-5.53-26.34-18.51-1.98-12,7.48-28.8,11.09-34.04.4-.63,1.43-1.82,1.09-2.39-.86-.65-2.47-.43-3.61-.64-16.58-1.93-31.63-8.55-37.21-11.02-5.38-2.38-10.55-5-16-7.22-5.58-2.27-11.25-4.36-17.09-5.84-2.2-.56-4.42-1.03-6.66-1.41-.99-.17-1.99-.32-2.99-.44-.73-.09-1.46-.16-2.2-.2ZM287.81,165.21c6.55-.32,13.09-2.5,17.56-7.37.85-.91,2.2-2.69,1.13-3.81-.57-.61-1.85-.49-2.72-.23-7.74,2.29-13.79,8.4-15.92,10.74-.16.17-.41.5-.12.65l.07.03Z"/></svg>